<svg width="24" height="24" viewBox="0 0 24 24" fill="none" xmlns="http://www.w3.org/2000/svg">
<path d="M20.031 15.5312C19.9614 15.6009 19.8787 15.6563 19.7876 15.694C19.6966 15.7318 19.599 15.7512 19.5004 15.7512C19.4019 15.7512 19.3043 15.7318 19.2132 15.694C19.1222 15.6563 19.0394 15.6009 18.9698 15.5312L12.0004 8.5609L5.03104 15.5312C4.89031 15.6719 4.69944 15.751 4.50042 15.751C4.30139 15.751 4.11052 15.6719 3.96979 15.5312C3.82906 15.3905 3.75 15.1996 3.75 15.0006C3.75 14.8016 3.82906 14.6107 3.96979 14.47L11.4698 6.96996C11.5394 6.90023 11.6222 6.84491 11.7132 6.80717C11.8043 6.76943 11.9019 6.75 12.0004 6.75C12.099 6.75 12.1966 6.76943 12.2876 6.80717C12.3787 6.84491 12.4614 6.90023 12.531 6.96996L20.031 14.47C20.1008 14.5396 20.1561 14.6223 20.1938 14.7134C20.2316 14.8044 20.251 14.902 20.251 15.0006C20.251 15.0992 20.2316 15.1967 20.1938 15.2878C20.1561 15.3788 20.1008 15.4616 20.031 15.5312Z" fill="#343330"/>
</svg>
