<svg width="43" height="35" viewBox="0 0 43 35" fill="none" xmlns="http://www.w3.org/2000/svg">
<path d="M30.8086 16.5953L26.4336 7.84531C26.3817 7.74151 26.3019 7.65422 26.2032 7.59321C26.1044 7.5322 25.9907 7.49989 25.8746 7.49989C25.7586 7.49989 25.6448 7.5322 25.5461 7.59321C25.4473 7.65422 25.3675 7.74151 25.3156 7.84531L23.6195 11.2383C22.2901 11.1635 21.0109 10.7043 19.9375 9.91641C21.1969 8.57145 21.96 6.83719 22.1008 5H24C24.1658 5 24.3247 4.93415 24.4419 4.81694C24.5592 4.69973 24.625 4.54076 24.625 4.375C24.625 4.20924 24.5592 4.05027 24.4419 3.93306C24.3247 3.81585 24.1658 3.75 24 3.75H19.625V2.5C19.625 2.33424 19.5592 2.17527 19.4419 2.05806C19.3247 1.94085 19.1658 1.875 19 1.875C18.8342 1.875 18.6753 1.94085 18.5581 2.05806C18.4408 2.17527 18.375 2.33424 18.375 2.5V3.75H14C13.8342 3.75 13.6753 3.81585 13.5581 3.93306C13.4408 4.05027 13.375 4.20924 13.375 4.375C13.375 4.54076 13.4408 4.69973 13.5581 4.81694C13.6753 4.93415 13.8342 5 14 5H20.8461C20.7069 6.53176 20.0567 7.97222 19 9.08984C18.3415 8.39505 17.8359 7.57005 17.5156 6.66797C17.4893 6.58926 17.4475 6.51659 17.3928 6.45419C17.3381 6.39179 17.2715 6.34092 17.1969 6.30453C17.1223 6.26815 17.0412 6.24699 16.9584 6.24228C16.8755 6.23758 16.7925 6.24942 16.7143 6.27713C16.6361 6.30483 16.5641 6.34784 16.5027 6.40364C16.4413 6.45944 16.3916 6.52692 16.3565 6.60214C16.3214 6.67736 16.3017 6.75881 16.2984 6.84174C16.2951 6.92467 16.3084 7.00742 16.3375 7.08516C16.7104 8.13974 17.2977 9.10562 18.0625 9.92188C16.885 10.7872 15.4613 11.2526 14 11.25C13.8342 11.25 13.6753 11.3158 13.5581 11.4331C13.4408 11.5503 13.375 11.7092 13.375 11.875C13.375 12.0408 13.4408 12.1997 13.5581 12.3169C13.6753 12.4342 13.8342 12.5 14 12.5C15.813 12.502 17.574 11.8945 19 10.775C20.1637 11.6843 21.5529 12.2598 23.0188 12.4398L20.9406 16.5953C20.9039 16.6687 20.882 16.7486 20.8761 16.8305C20.8703 16.9124 20.8806 16.9946 20.9066 17.0725C20.959 17.2298 21.0717 17.3598 21.2199 17.434C21.3682 17.5082 21.5398 17.5204 21.6971 17.468C21.8544 17.4157 21.9844 17.3029 22.0586 17.1547L23.1359 15H28.6133L29.6906 17.1547C29.7426 17.2585 29.8224 17.3458 29.9212 17.4068C30.02 17.4678 30.1339 17.5001 30.25 17.5C30.3565 17.4999 30.4613 17.4727 30.5543 17.4207C30.6473 17.3688 30.7255 17.294 30.7815 17.2034C30.8374 17.1127 30.8693 17.0093 30.874 16.9029C30.8788 16.7964 30.8563 16.6906 30.8086 16.5953ZM23.7609 13.75L25.875 9.52266L27.9883 13.75H23.7609Z" fill="#050300"/>
<path d="M12.177 24.0898V30.5156H11.2493V27.2344H9.54031C9.34012 28.2891 8.4368 29.002 7.30398 29.002C5.98562 29.002 5.00906 28.0938 5.00906 26.8145C5.00906 25.5352 5.98562 24.6367 7.30398 24.6367C8.46609 24.6367 9.38406 25.3789 9.55984 26.4727H11.2493V24.0898H12.177ZM12.4114 31.8926V32.6445H6.49344V29.8613H7.42117V31.8926H12.4114ZM7.30398 25.4473C6.49344 25.4473 5.89773 25.9941 5.89773 26.8145C5.89773 27.6348 6.49344 28.2012 7.30398 28.2012C8.095 28.2012 8.6907 27.6348 8.6907 26.8145C8.6907 25.9941 8.095 25.4473 7.30398 25.4473ZM15.6677 24.7344C16.8543 24.7344 17.7234 25.7402 17.865 27.3613H19.6716V24.0801H20.5896V32.8496H19.6716V28.1133H17.8748C17.7722 29.8174 16.8836 30.877 15.6677 30.877C14.3591 30.877 13.4412 29.6855 13.4509 27.8008C13.4412 25.9258 14.3591 24.7344 15.6677 24.7344ZM15.6677 25.5645C14.8767 25.5645 14.3298 26.4238 14.3298 27.8008C14.3298 29.1875 14.8767 30.0469 15.6677 30.0469C16.4587 30.0469 17.0056 29.1875 17.0056 27.8008C17.0056 26.4238 16.4587 25.5645 15.6677 25.5645ZM26.1897 24.8516C26.1799 26.0137 27.6057 27.1074 29.3245 27.332L28.9631 28.0938C27.5325 27.8643 26.2727 27.1221 25.7112 26.0918C25.135 27.127 23.8801 27.8643 22.4592 28.0938L22.0881 27.332C23.8069 27.1074 25.2131 26.0234 25.2229 24.8516V24.373H26.1897V24.8516ZM29.6858 28.9531V29.7148H26.1311V32.8301H25.2229V29.7148H21.7073V28.9531H29.6858ZM32.5417 24.4805C33.6941 24.4707 34.5827 25.1396 34.778 26.1211H36.487V24.0801H37.4148V28.7773H36.487V26.8828H34.7878C34.5974 27.8887 33.7038 28.5625 32.5417 28.5625C31.2038 28.5625 30.2468 27.7227 30.2468 26.5117C30.2468 25.3203 31.2038 24.4707 32.5417 24.4805ZM32.5417 25.252C31.7116 25.252 31.1355 25.7598 31.1355 26.5117C31.1355 27.2637 31.7116 27.7812 32.5417 27.7812C33.3523 27.7812 33.9284 27.2637 33.9284 26.5117C33.9284 25.7598 33.3523 25.252 32.5417 25.252ZM32.6296 29.1973V30.2129H36.487V29.1973H37.4148V32.7227H31.7116V29.1973H32.6296ZM32.6296 31.9609H36.487V30.9453H32.6296V31.9609Z" fill="#050300"/>
</svg>
