<svg width="16" height="16" viewBox="0 0 16 16" fill="none" xmlns="http://www.w3.org/2000/svg">
<path d="M14 14C14 14.1326 13.9473 14.2598 13.8536 14.3536C13.7598 14.4473 13.6326 14.5 13.5 14.5H2.5C2.36739 14.5 2.24021 14.4473 2.14645 14.3536C2.05268 14.2598 2 14.1326 2 14C2 13.8674 2.05268 13.7402 2.14645 13.6464C2.24021 13.5527 2.36739 13.5 2.5 13.5H13.5C13.6326 13.5 13.7598 13.5527 13.8536 13.6464C13.9473 13.7402 14 13.8674 14 14ZM14 9V11.5C14 11.7652 13.8946 12.0196 13.7071 12.2071C13.5196 12.3946 13.2652 12.5 13 12.5H3C2.73478 12.5 2.48043 12.3946 2.29289 12.2071C2.10536 12.0196 2 11.7652 2 11.5V9C2 8.73478 2.10536 8.48043 2.29289 8.29289C2.48043 8.10536 2.73478 8 3 8H6.52688L5.545 3.41937C5.48247 3.12781 5.48593 2.82595 5.55513 2.53589C5.62433 2.24583 5.75751 1.97492 5.94493 1.74298C6.13235 1.51104 6.36927 1.32395 6.63833 1.19539C6.9074 1.06684 7.2018 1.00008 7.5 1H8.5C8.79825 0.999987 9.09273 1.06668 9.36187 1.19519C9.63101 1.32371 9.868 1.51079 10.0555 1.74274C10.243 1.97469 10.3762 2.24563 10.4455 2.53574C10.5147 2.82584 10.5182 3.12776 10.4556 3.41937L9.47313 8H13C13.2652 8 13.5196 8.10536 13.7071 8.29289C13.8946 8.48043 14 8.73478 14 9ZM7.54938 8H8.45063L9.4775 3.20937C9.50871 3.06361 9.50694 2.91272 9.47232 2.76773C9.43769 2.62274 9.37109 2.48732 9.27739 2.37139C9.18368 2.25546 9.06525 2.16194 8.93074 2.09768C8.79624 2.03343 8.64907 2.00005 8.5 2H7.5C7.35088 1.99996 7.20364 2.03326 7.06906 2.09748C6.93448 2.1617 6.81596 2.2552 6.72218 2.37115C6.62841 2.48709 6.56175 2.62254 6.5271 2.76758C6.49244 2.91261 6.49065 3.06356 6.52187 3.20937L7.54938 8ZM13 11.5V9H3V11.5H13Z" fill="#7BD232"/>
</svg>
