<svg xmlns="http://www.w3.org/2000/svg" width="14" height="14" viewBox="0 0 14 14" fill="none">
  <path d="M14 14C14 12.1615 13.6379 10.341 12.9343 8.64243C12.2307 6.94387 11.1995 5.40052 9.89949 4.1005C8.59947 2.80048 7.05613 1.76925 5.35757 1.06569C3.65901 0.36212 1.8385 -8.09202e-07 -1.90735e-06 -6.11959e-07L-2.03886e-06 3.00869C1.4434 3.00869 2.87266 3.29299 4.20619 3.84536C5.53972 4.39772 6.75139 5.20734 7.77202 6.22797C8.79266 7.24861 9.60228 8.46028 10.1546 9.79381C10.707 11.1273 10.9913 12.5566 10.9913 14L14 14Z" fill="#7BD232"/>
</svg>