<svg xmlns="http://www.w3.org/2000/svg" width="14" height="28" viewBox="0 0 14 28" fill="none">
  <path d="M3.40151e-06 -1.22392e-06C3.71303 -8.99315e-07 7.27399 1.475 9.8995 4.10051C12.525 6.72601 14 10.287 14 14C14 17.713 12.525 21.274 9.8995 23.8995C7.27399 26.525 3.71303 28 0 28L2.6113e-07 25.013C2.92083 25.013 5.72204 23.8527 7.78738 21.7874C9.85272 19.722 11.013 16.9208 11.013 14C11.013 11.0792 9.85272 8.27796 7.78738 6.21262C5.72204 4.14728 2.92084 2.98698 3.14038e-06 2.98698L3.40151e-06 -1.22392e-06Z" fill="#7BD232"/>
</svg>