<svg xmlns="http://www.w3.org/2000/svg" width="28" height="28" viewBox="0 0 28 28" fill="none">
  <path d="M14 -6.11959e-07C16.7689 -7.32994e-07 19.4757 0.821084 21.778 2.35942C24.0803 3.89777 25.8747 6.08427 26.9343 8.64243C27.9939 11.2006 28.2712 14.0155 27.731 16.7313C27.1908 19.447 25.8574 21.9416 23.8995 23.8995C21.9416 25.8574 19.447 27.1908 16.7313 27.731C14.0155 28.2712 11.2006 27.9939 8.64243 26.9343C6.08427 25.8747 3.89776 24.0803 2.35943 21.778C0.821085 19.4757 -5.23945e-07 16.7689 -6.11959e-07 14L3.0172 14C3.0172 16.1722 3.66133 18.2956 4.86813 20.1017C6.07494 21.9078 7.79022 23.3155 9.79706 24.1468C11.8039 24.978 14.0122 25.1955 16.1426 24.7718C18.2731 24.348 20.23 23.302 21.766 21.766C23.302 20.23 24.348 18.2731 24.7718 16.1426C25.1955 14.0122 24.978 11.8039 24.1468 9.79706C23.3155 7.79022 21.9078 6.07494 20.1017 4.86813C18.2956 3.66133 16.1722 3.0172 14 3.0172L14 -6.11959e-07Z" fill="#7BD232"/>
</svg>