<svg xmlns="http://www.w3.org/2000/svg" width="188" height="208" viewBox="0 0 188 208" fill="none">
  <path fill-rule="evenodd" clip-rule="evenodd" d="M123.402 18.8687C123.402 26.3224 119.068 32.7667 112.775 35.8322C109.149 37.5986 105.91 40.8033 105.91 44.8369V44.8369C105.91 48.5414 108.557 51.6803 112.119 52.6964C152.672 64.2633 188 112.42 188 153.732C188 201.055 141.644 208 94.179 208C46.7141 208 0 201.055 0 153.732C0 116.071 29.5856 72.7227 65.5903 56.5911C76.5156 51.6961 85.5546 41.8044 85.5546 29.8326V19.374C85.5546 19.3025 85.5553 19.2311 85.5568 19.1599C85.5553 19.063 85.5546 18.9659 85.5546 18.8687C85.5546 8.4478 94.0271 0 104.478 0C114.93 0 123.402 8.4478 123.402 18.8687Z" fill="#96DB5C"/>
  <ellipse cx="44.4789" cy="139.069" rx="14.3383" ry="7.14825" fill="#63AB26"/>
  <ellipse cx="143.709" cy="139.069" rx="14.3383" ry="7.14825" fill="#63AB26"/>
  <ellipse cx="94.1909" cy="141.658" rx="16.5874" ry="10.372" fill="#FAB7B7"/>
  <ellipse cx="94.1683" cy="144.954" rx="14.3383" ry="7.00809" fill="#F94747"/>
  <ellipse cx="116.393" cy="117.736" rx="8.99656" ry="8.97035" fill="#100F0F"/>
  <ellipse cx="71.6919" cy="117.736" rx="8.99656" ry="8.97035" fill="#100F0F"/>
  <path fill-rule="evenodd" clip-rule="evenodd" d="M90.6697 124.744C89.0687 133.823 81.1011 140.723 71.5132 140.723C61.9252 140.723 53.9576 133.823 52.3567 124.744H35.6959C33.8381 124.744 32.332 123.238 32.332 121.38C32.332 119.523 33.8381 118.017 35.6959 118.017H52.3567C53.9576 108.938 61.9252 102.038 71.5132 102.038C81.1011 102.038 89.0687 108.938 90.6697 118.017H97.4572C99.0581 108.938 107.026 102.038 116.614 102.038C126.202 102.038 134.169 108.938 135.77 118.017H152.431C154.289 118.017 155.795 119.523 155.795 121.38C155.795 123.238 154.289 124.744 152.431 124.744H135.77C134.169 133.823 126.202 140.723 116.614 140.723C107.026 140.723 99.0581 133.823 97.4572 124.744H90.6697ZM84.1977 121.38C84.1977 128.347 78.5187 133.995 71.5132 133.995C64.5077 133.995 58.8287 128.347 58.8287 121.38C58.8287 114.414 64.5077 108.766 71.5132 108.766C78.5187 108.766 84.1977 114.414 84.1977 121.38ZM116.614 133.995C123.619 133.995 129.298 128.347 129.298 121.38C129.298 114.414 123.619 108.766 116.614 108.766C109.608 108.766 103.929 114.414 103.929 121.38C103.929 128.347 109.608 133.995 116.614 133.995Z" fill="#F14245"/>
</svg>