<svg width="26" height="26" viewBox="0 0 26 26" fill="none" xmlns="http://www.w3.org/2000/svg">
<path d="M13 2.84375C10.9913 2.84375 9.02768 3.4394 7.35749 4.55539C5.68731 5.67137 4.38556 7.25756 3.61685 9.11337C2.84815 10.9692 2.64702 13.0113 3.0389 14.9814C3.43079 16.9515 4.39807 18.7612 5.81845 20.1816C7.23883 21.6019 9.0485 22.5692 11.0186 22.9611C12.9887 23.353 15.0308 23.1519 16.8866 22.3832C18.7424 21.6144 20.3286 20.3127 21.4446 18.6425C22.5606 16.9723 23.1563 15.0087 23.1563 13C23.1534 10.3073 22.0825 7.72564 20.1784 5.82159C18.2744 3.91754 15.6927 2.84659 13 2.84375ZM21.5938 13C21.5958 15.0093 20.8901 16.9551 19.6006 18.4961L7.50391 6.39844C8.75879 5.35447 10.285 4.68949 11.9041 4.48133C13.5231 4.27316 15.1679 4.53041 16.6461 5.22297C18.1243 5.91554 19.3746 7.01477 20.2508 8.39204C21.127 9.76931 21.5928 11.3676 21.5938 13ZM4.40625 13C4.40425 10.9907 5.10991 9.04485 6.39942 7.50391L18.4961 19.6016C17.2412 20.6455 15.715 21.3105 14.0959 21.5187C12.4769 21.7268 10.8321 21.4696 9.35391 20.777C7.87575 20.0845 6.62541 18.9852 5.74921 17.608C4.87301 16.2307 4.40719 14.6324 4.40625 13Z" fill="#BFBFBF"/>
</svg>
