<svg width="240" height="266" viewBox="0 0 240 266" fill="none" xmlns="http://www.w3.org/2000/svg">
<path fillRule="evenodd" clipRule="evenodd" d="M157.535 24.0877C157.535 33.603 152.001 41.8297 143.968 45.7431C139.339 47.9982 135.204 52.0895 135.204 57.2388V57.2388C135.204 61.9681 138.583 65.9754 143.131 67.2726C194.901 82.039 240 143.515 240 196.254C240 256.667 180.822 265.532 120.229 265.532C59.635 265.532 0 256.667 0 196.254C0 148.176 37.7689 92.8379 83.7324 72.2444C97.6796 65.9954 109.219 53.3677 109.219 38.0845V24.7338C109.219 24.6423 109.22 24.551 109.222 24.4599C109.22 24.3361 109.219 24.212 109.219 24.0877C109.219 10.7844 120.035 0 133.377 0C146.719 0 157.535 10.7844 157.535 24.0877Z" fill="#96DB5C"/>
<ellipse cx="56.7807" cy="177.534" rx="18.3042" ry="9.12542" fill="#63AB26"/>
<ellipse cx="183.458" cy="177.534" rx="18.3042" ry="9.12542" fill="#63AB26"/>
<ellipse cx="120.244" cy="180.84" rx="21.1754" ry="13.2408" fill="#FAB7B7"/>
<ellipse cx="120.214" cy="185.046" rx="18.3042" ry="8.94649" fill="#F94747"/>
<ellipse cx="148.587" cy="150.301" rx="11.485" ry="11.4515" fill="#100F0F"/>
<ellipse cx="91.5221" cy="150.301" rx="11.485" ry="11.4515" fill="#100F0F"/>
<path fillRule="evenodd" clipRule="evenodd" d="M115.751 159.248C113.707 170.838 103.535 179.646 91.2954 179.646C79.0553 179.646 68.8839 170.838 66.8403 159.248H45.5697C43.198 159.248 41.2754 157.325 41.2754 154.954C41.2754 152.582 43.198 150.659 45.5697 150.659H66.8403C68.8842 139.069 79.0555 130.262 91.2954 130.262C103.535 130.262 113.707 139.069 115.75 150.659H124.414C126.458 139.069 136.629 130.262 148.869 130.262C161.109 130.262 171.28 139.069 173.324 150.659H194.593C196.965 150.659 198.888 152.582 198.888 154.954C198.888 157.325 196.965 159.248 194.593 159.248H173.324C171.281 170.838 161.109 179.646 148.869 179.646C136.629 179.646 126.458 170.838 124.414 159.248H115.751ZM107.489 154.955C107.489 163.849 100.239 171.059 91.2961 171.059C82.353 171.059 75.1031 163.849 75.1031 154.955C75.1031 146.061 82.353 138.851 91.2961 138.851C100.239 138.851 107.489 146.061 107.489 154.955ZM148.87 171.059C157.813 171.059 165.063 163.849 165.063 154.955C165.063 146.061 157.813 138.851 148.87 138.851C139.927 138.851 132.677 146.061 132.677 154.955C132.677 163.849 139.927 171.059 148.87 171.059Z" fill="#F14245"/>
</svg>
