<svg xmlns="http://www.w3.org/2000/svg" width="37" height="36" viewBox="0 0 37 36" fill="none">
  <g clip-path="url(#clip0_1727_25836)">
    <rect x="2.5" y="26" width="31" height="6" rx="2" fill="#FF9502"/>
    <path d="M34.3544 13.7635C28.2326 4.07879 8.7674 4.07907 2.64559 13.7633C2.54874 13.9165 2.5 14.0954 2.5 14.2767V15.0001C2.5 15.5524 2.94772 16.0001 3.5 16.0001H33.5C34.0523 16.0001 34.5 15.5524 34.5 15.0001V14.2768C34.5 14.0956 34.4513 13.9167 34.3544 13.7635Z" fill="#FF9502"/>
    <rect x="2.5" y="20" width="32" height="4" rx="1" fill="#AA5D00"/>
    <path d="M10.245 26.3611C5.20662 28.3597 -2.36625 28.3968 1.9391 24.2657C2.11672 24.0953 2.36221 24 2.60837 24H34.1178C34.364 24 34.6093 24.0953 34.7872 24.2655C39.1021 28.3965 31.7751 28.3598 26.7556 26.3615C26.3889 26.2155 25.9721 26.2836 25.6608 26.5261C23.5054 28.2052 21.35 28.2548 19.1947 26.6748C18.7836 26.3735 18.217 26.3735 17.8059 26.6748C15.6506 28.2548 13.4952 28.2052 11.3399 26.5261C11.0286 26.2836 10.6119 26.2155 10.245 26.3611Z" fill="#05C508"/>
    <rect x="4.5" y="18" width="28" height="2" rx="1" fill="#FF383B"/>
    <rect x="2.5" y="16" width="32" height="2" rx="1" fill="#FFD138"/>
    <path d="M23.3592 7.91362C21.4816 7.51323 23.0499 8.53924 24.5559 9.37397C25.0225 9.63262 25.6331 9.36793 25.3394 8.92247C25.0919 8.54692 24.5189 8.16092 23.3592 7.91362Z" fill="#FFBA5A"/>
    <path d="M14.6408 7.91362C16.5184 7.51323 14.9501 8.53924 13.4441 9.37397C12.9775 9.63262 12.3669 9.36793 12.6606 8.92247C12.9081 8.54692 13.4811 8.16092 14.6408 7.91362Z" fill="#FFBA5A"/>
    <path d="M18.1718 8.05078C18.7238 6.58478 18.9387 8.06228 19.0011 9.6252C19.0279 10.2945 18.3351 10.6909 18.0727 10.0746C17.8743 9.60877 17.8337 8.94858 18.1718 8.05078Z" fill="#FFBA5A"/>
  </g>
  <defs>
    <clipPath id="clip0_1727_25836">
      <rect width="36" height="36" fill="white" transform="translate(0.5)"/>
    </clipPath>
  </defs>
</svg>