<svg width="37" height="36" viewBox="0 0 37 36" fill="none" xmlns="http://www.w3.org/2000/svg">
<g clip-path="url(#clip0_1727_25821)">
<path d="M7.79862 4.75C8.51606 4.33579 9.43344 4.5816 9.84766 5.29904L14.0977 12.6603L11.4996 14.1603L7.24958 6.79904C6.83537 6.0816 7.08118 5.16421 7.79862 4.75Z" fill="black"/>
<path d="M29.1989 4.75C28.4815 4.33579 27.5641 4.5816 27.1499 5.29904L22.8999 12.6603L25.498 14.1603L29.748 6.79904C30.1622 6.0816 29.9164 5.16421 29.1989 4.75Z" fill="black"/>
<path fill-rule="evenodd" clip-rule="evenodd" d="M0.5 14C0.5 12.8954 1.39543 12 2.5 12H34.5C35.6046 12 36.5 12.8954 36.5 14C36.5 15.1046 35.6046 16 34.5 16H33.0603C33.06 16.1291 33.0471 16.2605 33.0206 16.3929L30.2159 30.3929C30.0287 31.3274 29.208 32 28.2549 32H18.5H8.74513C7.79201 32 6.97132 31.3274 6.78409 30.3929L3.97938 16.3929C3.95287 16.2605 3.94001 16.1291 3.93974 16H2.5C1.39543 16 0.5 15.1046 0.5 14Z" fill="#F24822"/>
<rect x="20" y="18" width="10" height="3" rx="1.5" transform="rotate(90 20 18)" fill="white"/>
<rect x="26.5" y="18" width="10" height="3" rx="1.5" transform="rotate(90 26.5 18)" fill="white"/>
<rect x="13.5" y="18" width="10" height="3" rx="1.5" transform="rotate(90 13.5 18)" fill="white"/>
</g>
<defs>
<clipPath id="clip0_1727_25821">
<rect width="36" height="36" fill="white" transform="translate(0.5)"/>
</clipPath>
</defs>
</svg>
