<svg xmlns="http://www.w3.org/2000/svg" width="37" height="36" viewBox="0 0 37 36" fill="none">
  <g clip-path="url(#clip0_1727_25830)">
    <path d="M1.34926 10.868L5.90024 4.8C6.27795 4.29639 6.87073 4 7.50024 4H10.9384C11.8562 4 12.637 4.63523 12.9746 5.48861C15.3542 11.5038 21.6458 11.5038 24.0254 5.48861C24.363 4.63523 25.1438 4 26.0616 4H29.5002C30.1297 4 30.7225 4.2964 31.1002 4.80003L35.651 10.868C36.1598 11.5464 36.1855 12.4718 35.7152 13.1773L33.3051 16.7926C32.8453 17.4824 31.9438 17.7218 31.2024 17.3511C30.0373 16.7686 28.6898 17.7082 28.8337 19.0028L30.2533 31.7791C30.3849 32.9639 29.4575 34 28.2655 34H8.73458C7.54255 34 6.61517 32.9639 6.74681 31.7791L8.1664 19.0026C8.31024 17.7081 6.9629 16.7686 5.79794 17.3511C5.05658 17.7218 4.15521 17.4825 3.69544 16.7928L1.28516 13.1774C0.814795 12.4718 0.840483 11.5463 1.34926 10.868Z" fill="#4CACFF"/>
    <path d="M36.1075 12.5887L32.9897 17.2655C32.7099 17.6851 32.1615 17.8307 31.7104 17.6052L30.5 17L35 10L36.0755 11.434C36.3299 11.7732 36.3427 12.2359 36.1075 12.5887Z" fill="#2669CE"/>
    <path d="M0.892459 12.5887L4.01032 17.2655C4.29007 17.6851 4.8385 17.8307 5.28958 17.6052L6.5 17L2 10L0.924509 11.434C0.670119 11.7732 0.657275 12.2359 0.892459 12.5887Z" fill="#2669CE"/>
    <path d="M24.5 4C22.5 10 14.5 10 12.5 4H10.5C12.5 12 24.5 12 26.5 4H24.5Z" fill="#2669CE"/>
  </g>
  <defs>
    <clipPath id="clip0_1727_25830">
      <rect width="36" height="36" fill="white" transform="translate(0.5)"/>
    </clipPath>
  </defs>
</svg>