<svg width="15" height="16" viewBox="0 0 15 16" fill="none" xmlns="http://www.w3.org/2000/svg">
<path d="M8.20313 8C8.20313 8.13906 8.16189 8.27501 8.08463 8.39064C8.00737 8.50626 7.89755 8.59638 7.76907 8.6496C7.64059 8.70282 7.49922 8.71674 7.36283 8.68961C7.22643 8.66248 7.10115 8.59552 7.00282 8.49718C6.90448 8.39885 6.83752 8.27357 6.81039 8.13717C6.78326 8.00078 6.79718 7.8594 6.8504 7.73093C6.90362 7.60245 6.99374 7.49263 7.10937 7.41537C7.22499 7.33811 7.36094 7.29688 7.5 7.29688C7.68648 7.29688 7.86532 7.37095 7.99718 7.50282C8.12905 7.63468 8.20313 7.81352 8.20313 8ZM11.4844 7.29688C11.3453 7.29688 11.2094 7.33811 11.0937 7.41537C10.9781 7.49263 10.888 7.60245 10.8348 7.73093C10.7816 7.8594 10.7676 8.00078 10.7948 8.13717C10.8219 8.27357 10.8889 8.39885 10.9872 8.49718C11.0855 8.59552 11.2108 8.66248 11.3472 8.68961C11.4836 8.71674 11.625 8.70282 11.7534 8.6496C11.8819 8.59638 11.9917 8.50626 12.069 8.39064C12.1463 8.27501 12.1875 8.13906 12.1875 8C12.1875 7.81352 12.1134 7.63468 11.9816 7.50282C11.8497 7.37095 11.6709 7.29688 11.4844 7.29688ZM3.51563 7.29688C3.37656 7.29688 3.24062 7.33811 3.12499 7.41537C3.00936 7.49263 2.91924 7.60245 2.86602 7.73093C2.8128 7.8594 2.79888 8.00078 2.82601 8.13717C2.85314 8.27357 2.92011 8.39885 3.01844 8.49718C3.11677 8.59552 3.24206 8.66248 3.37845 8.68961C3.51485 8.71674 3.65622 8.70282 3.7847 8.6496C3.91318 8.59638 4.02299 8.50626 4.10025 8.39064C4.17751 8.27501 4.21875 8.13906 4.21875 8C4.21875 7.81352 4.14467 7.63468 4.01281 7.50282C3.88095 7.37095 3.70211 7.29688 3.51563 7.29688Z" fill="#0D0D0D"/>
</svg>
