<svg width="375" height="550" viewBox="0 0 375 550" fill="none" xmlns="http://www.w3.org/2000/svg">
<rect width="375" height="550" fill="white"/>
<path d="M157.729 109.844C162.097 109.844 165.037 106.652 165.037 101.892C165.037 97.132 162.097 93.94 157.729 93.94C153.361 93.94 150.449 97.132 150.449 101.892C150.449 106.652 153.361 109.844 157.729 109.844ZM157.729 91.336C163.777 91.336 168.033 95.704 168.033 101.892C168.033 108.08 163.777 112.448 157.729 112.448C151.709 112.448 147.453 108.08 147.453 101.892C147.453 95.704 151.709 91.336 157.729 91.336ZM173.844 92.232V104.412L178.604 98.896H182.608L177.4 104.86L182.496 112.252H178.884L175.272 107.072L173.844 108.752V112.252H170.876V92.232H173.844ZM189.808 112.364C186.112 112.364 183.48 109.564 183.48 105.644C183.48 101.724 186.112 98.924 189.808 98.924C191.124 98.924 192.58 99.54 193.644 100.8V98.896H196.612V112.252H193.644V110.46C192.58 111.804 191.124 112.364 189.808 112.364ZM190.004 109.844C191.964 109.844 193.644 108.08 193.672 105.644C193.644 103.208 191.964 101.444 190.004 101.444C187.876 101.444 186.448 103.096 186.448 105.644C186.448 108.164 187.876 109.844 190.004 109.844ZM204.323 118.048H201.075L203.987 111.132L198.611 98.896H201.887L205.555 107.744L209.083 98.896H212.303L207.319 110.908L204.323 118.048Z" fill="black"/>
<path d="M134.26 161.431L125.471 169.015L128.148 180.357C128.296 180.973 128.258 181.619 128.039 182.213C127.82 182.807 127.43 183.323 126.918 183.695C126.406 184.067 125.795 184.28 125.162 184.305C124.529 184.33 123.903 184.168 123.363 183.838L113.5 177.767L103.631 183.838C103.091 184.166 102.465 184.327 101.834 184.301C101.202 184.274 100.593 184.062 100.082 183.69C99.5705 183.318 99.1811 182.803 98.9622 182.21C98.7433 181.617 98.7048 180.972 98.8514 180.357L101.539 169.015L92.7499 161.431C92.2719 161.018 91.9263 160.474 91.7561 159.865C91.5859 159.257 91.5987 158.612 91.7929 158.011C91.9871 157.41 92.354 156.879 92.848 156.485C93.3419 156.092 93.9409 155.852 94.5702 155.797L106.094 154.867L110.539 144.109C110.78 143.523 111.189 143.021 111.715 142.668C112.242 142.315 112.861 142.127 113.495 142.127C114.129 142.127 114.748 142.315 115.275 142.668C115.801 143.021 116.21 143.523 116.451 144.109L120.894 154.867L132.418 155.797C133.048 155.85 133.649 156.088 134.145 156.481C134.641 156.875 135.009 157.405 135.205 158.007C135.4 158.609 135.413 159.255 135.243 159.865C135.073 160.474 134.727 161.02 134.248 161.433L134.26 161.431Z" fill="#FFC61B"/>
<path d="M201.961 157.749C201.719 157.002 201.26 156.343 200.643 155.856C200.027 155.37 199.279 155.077 198.496 155.015L187.443 154.122L183.178 143.808C182.878 143.079 182.368 142.455 181.713 142.017C181.058 141.578 180.288 141.344 179.5 141.344C178.712 141.344 177.941 141.578 177.286 142.017C176.632 142.455 176.122 143.079 175.822 143.808L171.56 154.124L160.508 155.015C159.723 155.08 158.975 155.375 158.357 155.863C157.74 156.352 157.281 157.012 157.037 157.761C156.794 158.51 156.777 159.314 156.99 160.072C157.202 160.831 157.634 161.509 158.23 162.023L166.664 169.296L164.086 180.175C163.898 180.942 163.942 181.748 164.214 182.489C164.485 183.231 164.971 183.875 165.609 184.34C166.248 184.804 167.01 185.068 167.8 185.098C168.589 185.128 169.369 184.922 170.041 184.507L179.5 178.685L188.959 184.507C189.63 184.919 190.409 185.123 191.197 185.092C191.984 185.062 192.745 184.798 193.383 184.335C194.02 183.872 194.506 183.23 194.779 182.49C195.051 181.751 195.098 180.947 194.914 180.181L192.336 169.302L200.769 162.029C201.37 161.514 201.803 160.832 202.016 160.07C202.228 159.308 202.209 158.5 201.961 157.749ZM188.197 166.675C187.872 166.955 187.63 167.32 187.498 167.728C187.365 168.137 187.348 168.574 187.447 168.992L189.965 179.624L180.728 173.945C180.359 173.717 179.934 173.597 179.5 173.597C179.066 173.597 178.641 173.717 178.271 173.945L169.035 179.624L171.553 168.999C171.652 168.582 171.634 168.145 171.502 167.736C171.37 167.328 171.128 166.963 170.803 166.683L162.547 159.554L173.367 158.681C173.798 158.646 174.21 158.493 174.559 158.239C174.909 157.985 175.181 157.639 175.346 157.24L179.5 147.181L183.654 157.24C183.819 157.639 184.091 157.985 184.44 158.239C184.789 158.493 185.202 158.646 185.633 158.681L196.453 159.554L188.197 166.675Z" fill="#FFC61B"/>
<path d="M267.961 157.749C267.719 157.002 267.26 156.343 266.643 155.856C266.027 155.37 265.279 155.077 264.496 155.015L253.443 154.122L249.178 143.808C248.878 143.079 248.368 142.455 247.713 142.017C247.058 141.578 246.288 141.344 245.5 141.344C244.712 141.344 243.941 141.578 243.286 142.017C242.632 142.455 242.122 143.079 241.822 143.808L237.56 154.124L226.508 155.015C225.723 155.08 224.975 155.375 224.357 155.863C223.74 156.352 223.281 157.012 223.037 157.761C222.794 158.51 222.777 159.314 222.99 160.072C223.202 160.831 223.634 161.509 224.23 162.023L232.664 169.296L230.086 180.175C229.898 180.942 229.942 181.748 230.214 182.489C230.485 183.231 230.971 183.875 231.609 184.34C232.248 184.804 233.01 185.068 233.8 185.098C234.589 185.128 235.369 184.922 236.041 184.507L245.5 178.685L254.959 184.507C255.63 184.919 256.409 185.123 257.197 185.092C257.984 185.062 258.745 184.798 259.383 184.335C260.02 183.872 260.506 183.23 260.779 182.49C261.051 181.751 261.098 180.947 260.914 180.181L258.336 169.302L266.769 162.029C267.37 161.514 267.803 160.832 268.016 160.07C268.228 159.308 268.209 158.5 267.961 157.749ZM254.197 166.675C253.872 166.955 253.63 167.32 253.498 167.728C253.365 168.137 253.348 168.574 253.447 168.992L255.965 179.624L246.728 173.945C246.359 173.717 245.934 173.597 245.5 173.597C245.066 173.597 244.641 173.717 244.271 173.945L235.035 179.624L237.553 168.999C237.652 168.582 237.634 168.145 237.502 167.736C237.37 167.328 237.128 166.963 236.803 166.683L228.547 159.554L239.367 158.681C239.798 158.646 240.21 158.493 240.559 158.239C240.909 157.985 241.181 157.639 241.346 157.24L245.5 147.181L249.654 157.24C249.819 157.639 250.091 157.985 250.44 158.239C250.789 158.493 251.202 158.646 251.633 158.681L262.453 159.554L254.197 166.675Z" fill="#FFC61B"/>
<path fill-rule="evenodd" clip-rule="evenodd" d="M181.548 290.268C176.525 290.268 172.453 294.339 172.453 299.362V321.475C172.453 324.984 169.858 327.916 166.451 328.754C129.19 337.919 96 382.275 96 420.211C96 462.757 137.745 469 180.16 469C222.575 469 264 462.757 264 420.211C264 383.109 232.496 339.866 196.305 329.409C193.057 328.471 190.643 325.606 190.643 322.226V299.362C190.643 294.339 186.571 290.268 181.548 290.268Z" fill="#96DB5C"/>
<ellipse cx="135.747" cy="407.028" rx="12.8129" ry="6.42655" fill="#63AB26"/>
<ellipse cx="224.422" cy="407.028" rx="12.8129" ry="6.42655" fill="#63AB26"/>
<ellipse cx="180.17" cy="409.356" rx="14.8228" ry="9.3248" fill="#FAB7B7"/>
<ellipse cx="180.149" cy="412.32" rx="12.8129" ry="6.30054" fill="#F94747"/>
<ellipse cx="200.012" cy="387.85" rx="8.03948" ry="8.06469" fill="#100F0F"/>
<ellipse cx="160.065" cy="387.85" rx="8.03948" ry="8.06469" fill="#100F0F"/>
<path fill-rule="evenodd" clip-rule="evenodd" d="M177.023 394.15C175.592 402.312 168.472 408.515 159.904 408.515C151.336 408.515 144.216 402.312 142.785 394.15H127.823C126.204 394.15 124.891 392.837 124.891 391.217V391.034C124.891 389.415 126.204 388.102 127.823 388.102H142.785C144.216 379.939 151.336 373.736 159.904 373.736C168.472 373.736 175.592 379.939 177.023 388.102H183.088C184.519 379.939 191.639 373.736 200.207 373.736C208.775 373.736 215.895 379.939 217.325 388.102H232.286C233.906 388.102 235.219 389.415 235.219 391.034V391.217C235.219 392.837 233.906 394.15 232.286 394.15H217.325C215.895 402.312 208.775 408.515 200.207 408.515C191.639 408.515 184.519 402.312 183.088 394.15H177.023ZM171.239 391.126C171.239 397.39 166.164 402.467 159.903 402.467C153.643 402.467 148.568 397.39 148.568 391.126C148.568 384.863 153.643 379.785 159.903 379.785C166.164 379.785 171.239 384.863 171.239 391.126ZM200.206 402.467C206.466 402.467 211.541 397.39 211.541 391.126C211.541 384.863 206.466 379.785 200.206 379.785C193.946 379.785 188.871 384.863 188.871 391.126C188.871 397.39 193.946 402.467 200.206 402.467Z" fill="#F14245"/>
<path d="M188.776 309.475C177.309 308.88 143.977 296.264 153.529 270.323C177.483 263.905 186.333 294.084 188.776 309.475Z" fill="#96DB5C"/>
<path d="M177.224 309.475C188.691 308.88 222.023 296.264 212.471 270.323C188.517 263.905 179.667 294.084 177.224 309.475Z" fill="#96DB5C"/>
<path opacity="0.5" d="M248.299 460.664C263.134 448.068 309.415 456.079 298.922 473.597C287.768 492.22 273.287 461.812 248.299 460.664Z" fill="#3DA5FF"/>
<path opacity="0.5" d="M99.7651 448.807C99.5842 448.614 99.3991 448.418 99.2101 448.219C92.3449 442.652 40.6114 436.32 54.5933 426.35C65.9695 418.239 88.7108 437.19 99.2101 448.219C99.4528 448.416 99.6394 448.612 99.7651 448.807Z" fill="#3DA5FF"/>
<path opacity="0.5" d="M266.5 435.499C264.501 412.5 283.101 403.504 281.549 413.944C280.501 420.999 266.848 432.413 266.5 435.499Z" fill="#3DA5FF"/>
<path opacity="0.5" d="M101.791 455.636C97.67 466.271 84.0854 478.223 70.2909 461.635C53.0477 440.9 98.7906 455.637 101.791 455.636Z" fill="#3DA5FF"/>
<path d="M261.568 451.488C306.499 426.942 333.491 439.379 334.197 414.634C334.491 404.316 317.281 400.117 299.274 410.563C284.78 418.97 270.016 439.916 261.568 451.488Z" fill="#9DD1FE"/>
</svg>
