<svg width="375" height="550" viewBox="0 0 375 550" fill="none" xmlns="http://www.w3.org/2000/svg">
<rect width="375" height="550" fill="white"/>
<path d="M154.91 91.56V112.224H151.69L141.442 96.656V112.224H138.474V91.56H141.694L151.914 107.1V91.56H154.91ZM164.299 109.816C166.371 109.816 167.771 108.164 167.771 105.616C167.771 103.096 166.371 101.416 164.299 101.416C162.227 101.416 160.827 103.068 160.827 105.616C160.827 108.164 162.199 109.816 164.299 109.816ZM164.299 98.868C168.079 98.868 170.739 101.668 170.739 105.616C170.739 109.536 168.079 112.364 164.299 112.364C160.519 112.364 157.859 109.536 157.859 105.616C157.859 101.668 160.519 98.868 164.299 98.868ZM179.216 109.816C181.288 109.816 182.688 108.164 182.688 105.616C182.688 103.096 181.288 101.416 179.216 101.416C177.144 101.416 175.744 103.068 175.744 105.616C175.744 108.164 177.116 109.816 179.216 109.816ZM179.216 98.868C182.996 98.868 185.656 101.668 185.656 105.616C185.656 109.536 182.996 112.364 179.216 112.364C175.436 112.364 172.776 109.536 172.776 105.616C172.776 101.668 175.436 98.868 179.216 98.868ZM194.132 109.816C196.204 109.816 197.604 108.164 197.604 105.616C197.604 103.096 196.204 101.416 194.132 101.416C192.06 101.416 190.66 103.068 190.66 105.616C190.66 108.164 192.032 109.816 194.132 109.816ZM194.132 98.868C197.912 98.868 200.572 101.668 200.572 105.616C200.572 109.536 197.912 112.364 194.132 112.364C190.352 112.364 187.692 109.536 187.692 105.616C187.692 101.668 190.352 98.868 194.132 98.868ZM209.049 109.816C211.121 109.816 212.521 108.164 212.521 105.616C212.521 103.096 211.121 101.416 209.049 101.416C206.977 101.416 205.577 103.068 205.577 105.616C205.577 108.164 206.949 109.816 209.049 109.816ZM209.049 98.868C212.829 98.868 215.489 101.668 215.489 105.616C215.489 109.536 212.829 112.364 209.049 112.364C205.269 112.364 202.609 109.536 202.609 105.616C202.609 101.668 205.269 98.868 209.049 98.868ZM219.699 109.172C220.707 109.172 221.407 109.9 221.407 110.908C221.407 111.944 220.707 112.672 219.699 112.672C218.663 112.672 217.935 111.944 217.935 110.908C217.935 109.9 218.663 109.172 219.699 109.172ZM226.932 109.172C227.94 109.172 228.64 109.9 228.64 110.908C228.64 111.944 227.94 112.672 226.932 112.672C225.896 112.672 225.168 111.944 225.168 110.908C225.168 109.9 225.896 109.172 226.932 109.172ZM234.165 109.172C235.173 109.172 235.873 109.9 235.873 110.908C235.873 111.944 235.173 112.672 234.165 112.672C233.129 112.672 232.401 111.944 232.401 110.908C232.401 109.9 233.129 109.172 234.165 109.172Z" fill="black"/>
<path d="M143.961 157.749C143.719 157.002 143.26 156.343 142.643 155.856C142.027 155.37 141.279 155.077 140.496 155.015L129.443 154.122L125.178 143.808C124.878 143.079 124.368 142.455 123.713 142.017C123.058 141.578 122.288 141.344 121.5 141.344C120.712 141.344 119.941 141.578 119.286 142.017C118.632 142.455 118.122 143.079 117.822 143.808L113.56 154.124L102.508 155.015C101.723 155.08 100.975 155.375 100.357 155.863C99.7399 156.352 99.2807 157.012 99.0373 157.761C98.794 158.51 98.7774 159.314 98.9897 160.072C99.2019 160.831 99.6335 161.509 100.23 162.023L108.664 169.296L106.086 180.175C105.898 180.942 105.942 181.748 106.214 182.489C106.485 183.231 106.971 183.875 107.609 184.34C108.248 184.804 109.01 185.068 109.8 185.098C110.589 185.128 111.369 184.922 112.041 184.507L121.5 178.685L130.959 184.507C131.63 184.919 132.409 185.123 133.197 185.092C133.984 185.062 134.745 184.798 135.383 184.335C136.02 183.872 136.506 183.23 136.779 182.49C137.051 181.751 137.098 180.947 136.914 180.181L134.336 169.302L142.769 162.029C143.37 161.514 143.803 160.832 144.016 160.07C144.228 159.308 144.209 158.5 143.961 157.749ZM130.197 166.675C129.872 166.955 129.63 167.32 129.498 167.728C129.365 168.137 129.348 168.574 129.447 168.992L131.965 179.624L122.728 173.945C122.359 173.717 121.934 173.597 121.5 173.597C121.066 173.597 120.641 173.717 120.271 173.945L111.035 179.624L113.553 168.999C113.652 168.582 113.634 168.145 113.502 167.736C113.37 167.328 113.128 166.963 112.803 166.683L104.547 159.554L115.367 158.681C115.798 158.646 116.21 158.493 116.559 158.239C116.909 157.985 117.181 157.639 117.346 157.24L121.5 147.181L125.654 157.24C125.819 157.639 126.091 157.985 126.44 158.239C126.789 158.493 127.202 158.646 127.633 158.681L138.453 159.554L130.197 166.675Z" fill="#FFC61B"/>
<path d="M209.961 157.749C209.719 157.002 209.26 156.343 208.643 155.856C208.027 155.37 207.279 155.077 206.496 155.015L195.443 154.122L191.178 143.808C190.878 143.079 190.368 142.455 189.713 142.017C189.058 141.578 188.288 141.344 187.5 141.344C186.712 141.344 185.941 141.578 185.286 142.017C184.632 142.455 184.122 143.079 183.822 143.808L179.56 154.124L168.508 155.015C167.723 155.08 166.975 155.375 166.357 155.863C165.74 156.352 165.281 157.012 165.037 157.761C164.794 158.51 164.777 159.314 164.99 160.072C165.202 160.831 165.634 161.509 166.23 162.023L174.664 169.296L172.086 180.175C171.898 180.942 171.942 181.748 172.214 182.489C172.485 183.231 172.971 183.875 173.609 184.34C174.248 184.804 175.01 185.068 175.8 185.098C176.589 185.128 177.369 184.922 178.041 184.507L187.5 178.685L196.959 184.507C197.63 184.919 198.409 185.123 199.197 185.092C199.984 185.062 200.745 184.798 201.383 184.335C202.02 183.872 202.506 183.23 202.779 182.49C203.051 181.751 203.098 180.947 202.914 180.181L200.336 169.302L208.769 162.029C209.37 161.514 209.803 160.832 210.016 160.07C210.228 159.308 210.209 158.5 209.961 157.749ZM196.197 166.675C195.872 166.955 195.63 167.32 195.498 167.728C195.365 168.137 195.348 168.574 195.447 168.992L197.965 179.624L188.728 173.945C188.359 173.717 187.934 173.597 187.5 173.597C187.066 173.597 186.641 173.717 186.271 173.945L177.035 179.624L179.553 168.999C179.652 168.582 179.634 168.145 179.502 167.736C179.37 167.328 179.128 166.963 178.803 166.683L170.547 159.554L181.367 158.681C181.798 158.646 182.21 158.493 182.559 158.239C182.909 157.985 183.181 157.639 183.346 157.24L187.5 147.181L191.654 157.24C191.819 157.639 192.091 157.985 192.44 158.239C192.789 158.493 193.202 158.646 193.633 158.681L204.453 159.554L196.197 166.675Z" fill="#FFC61B"/>
<path d="M275.961 157.749C275.719 157.002 275.26 156.343 274.643 155.856C274.027 155.37 273.279 155.077 272.496 155.015L261.443 154.122L257.178 143.808C256.878 143.079 256.368 142.455 255.713 142.017C255.058 141.578 254.288 141.344 253.5 141.344C252.712 141.344 251.941 141.578 251.286 142.017C250.632 142.455 250.122 143.079 249.822 143.808L245.56 154.124L234.508 155.015C233.723 155.08 232.975 155.375 232.357 155.863C231.74 156.352 231.281 157.012 231.037 157.761C230.794 158.51 230.777 159.314 230.99 160.072C231.202 160.831 231.634 161.509 232.23 162.023L240.664 169.296L238.086 180.175C237.898 180.942 237.942 181.748 238.214 182.489C238.485 183.231 238.971 183.875 239.609 184.34C240.248 184.804 241.01 185.068 241.8 185.098C242.589 185.128 243.369 184.922 244.041 184.507L253.5 178.685L262.959 184.507C263.63 184.919 264.409 185.123 265.197 185.092C265.984 185.062 266.745 184.798 267.383 184.335C268.02 183.872 268.506 183.23 268.779 182.49C269.051 181.751 269.098 180.947 268.914 180.181L266.336 169.302L274.769 162.029C275.37 161.514 275.803 160.832 276.016 160.07C276.228 159.308 276.209 158.5 275.961 157.749ZM262.197 166.675C261.872 166.955 261.63 167.32 261.498 167.728C261.365 168.137 261.348 168.574 261.447 168.992L263.965 179.624L254.728 173.945C254.359 173.717 253.934 173.597 253.5 173.597C253.066 173.597 252.641 173.717 252.271 173.945L243.035 179.624L245.553 168.999C245.652 168.582 245.634 168.145 245.502 167.736C245.37 167.328 245.128 166.963 244.803 166.683L236.547 159.554L247.367 158.681C247.798 158.646 248.21 158.493 248.559 158.239C248.909 157.985 249.181 157.639 249.346 157.24L253.5 147.181L257.654 157.24C257.819 157.639 258.091 157.985 258.44 158.239C258.789 158.493 259.202 158.646 259.633 158.681L270.453 159.554L262.197 166.675Z" fill="#FFC61B"/>
<path d="M281.153 513.271C219.825 541.367 140.672 500.683 116.125 453.227L266.425 423.016C291.979 457.129 342.481 485.175 281.153 513.271Z" fill="#D9D9D9"/>
<path d="M280.643 519.032L279.321 517.31C275.484 512.314 277.536 505.033 283.418 502.777L284.328 502.428C288.792 500.716 293.787 503.033 295.363 507.546C296.894 511.932 301.922 515.211 306.401 516.444C309.8 517.38 313.39 518.972 315.437 521.446C320.253 527.267 318.094 537.761 310.527 542.971C302.982 548.167 293.688 544.952 288.625 539.195C285.755 535.932 284.257 531.653 283.74 528.085C283.278 524.904 282.601 521.581 280.643 519.032Z" fill="#D9D9D9"/>
<path fill-rule="evenodd" clip-rule="evenodd" d="M214.049 298.992C214.049 305.702 210.151 311.504 204.49 314.266C201.225 315.858 198.308 318.744 198.308 322.377V322.377C198.308 325.713 200.692 328.54 203.899 329.456C240.392 339.873 272.182 383.238 272.182 420.439C272.182 463.055 230.466 469.309 187.752 469.309C145.039 469.309 103 463.055 103 420.439C103 387.187 128.595 349.011 160.135 333.841C170.922 328.652 179.99 318.762 179.99 306.791V299.44C179.99 299.377 179.991 299.313 179.992 299.25C179.991 299.164 179.99 299.078 179.99 298.992C179.99 289.607 187.615 282 197.02 282C206.425 282 214.049 289.607 214.049 298.992Z" fill="#96DB5C"/>
<ellipse cx="143.027" cy="407.234" rx="12.903" ry="6.43714" fill="#63AB26"/>
<ellipse cx="232.327" cy="407.234" rx="12.903" ry="6.43714" fill="#63AB26"/>
<ellipse cx="187.592" cy="414.173" rx="15.1055" ry="13.5949" fill="#FAB7B7"/>
<path d="M200.43 419.839C200.43 423.802 194.681 427.77 187.59 427.77C180.499 427.77 174.75 423.802 174.75 419.839C174.75 415.876 180.499 412.664 187.59 412.664C194.681 412.664 200.43 415.876 200.43 419.839Z" fill="#F94747"/>
<ellipse cx="207.985" cy="390.381" rx="6.79747" ry="6.41984" fill="#100F0F"/>
<circle cx="167.576" cy="390.381" r="6.41984" fill="#100F0F"/>
<rect x="213.271" y="350.73" width="4.53165" height="21.1477" rx="2.26583" fill="#575757"/>
<rect x="221.578" y="350.73" width="4.53165" height="28.7005" rx="2.26583" fill="#575757"/>
<rect x="229.885" y="350.73" width="4.53165" height="33.2321" rx="2.26583" fill="#575757"/>
</svg>
