<svg width="375" height="634" viewBox="0 0 375 634" fill="none" xmlns="http://www.w3.org/2000/svg">
<g clip-path="url(#clip0_2233_11057)">
<g clip-path="url(#clip1_2233_11057)">
<rect width="373.005" height="634" fill="white"/>
</g>
<path opacity="0.5" fill-rule="evenodd" clip-rule="evenodd" d="M15.5568 311.519C25.6576 322.261 48.8682 285.146 60.8318 262.802C55.879 282.047 46.1935 327.911 58.8124 329.911C74.149 332.342 68.5608 283.727 64.2433 259.688C70.1879 276.89 88.8208 324.292 100.877 318.626C114.283 312.325 85.9796 278.282 68.5684 259.979C82.1502 272.456 120.58 304.89 128.468 294.23C137.075 282.596 98.2304 266.596 74.0578 258.55C94.1954 263.688 137.094 272.534 139.064 260.292C141.344 246.122 100.294 249.647 75.0734 253.617C95.8018 249.338 136.834 238.794 133.367 227.104C129.144 212.865 91.319 235.898 70.6854 250.438C86.5106 238.079 121.578 208.097 112.876 198.843C102.194 187.483 76.8483 229.649 65.6511 251.261C70.5988 232.054 80.32 186.09 67.687 184.088C52.9155 181.746 57.5552 226.759 61.7748 251.557C56.1885 235.166 37.107 185.968 24.8377 191.734C13.1722 197.217 33.0865 223.704 49.9263 242.549C32.9115 228.118 6.14897 208.133 -0.2858 216.83C-8.89003 228.459 29.9213 244.451 54.0959 252.5C33.9461 247.361 -8.91159 238.53 -10.8806 250.766C-13.1619 264.943 27.928 261.407 53.1453 257.436C32.4287 261.709 -8.65391 272.259 -5.18494 283.956C-1.26798 297.164 31.5647 278.3 52.7664 263.895C35.6503 277.797 7.68251 303.145 15.5568 311.519Z" fill="#FF99D3"/>
<path opacity="0.5" fill-rule="evenodd" clip-rule="evenodd" d="M326.559 85.384C331.658 90.8071 343.376 72.0708 349.416 60.7893C346.916 70.5074 342.027 93.6596 348.397 94.6694C356.141 95.8968 353.319 71.3505 351.139 59.2138C354.14 67.8982 363.548 91.8325 369.635 88.9715C376.404 85.7901 362.113 68.6015 353.323 59.3607C360.179 65.6596 379.584 82.0375 383.567 76.6547C387.913 70.7807 368.298 62.7021 356.094 58.64C366.261 61.2342 387.921 65.7009 388.916 59.5198C390.068 52.3618 369.321 54.1472 356.589 56.1525C367.048 53.995 387.792 48.6684 386.04 42.7624C383.908 35.5727 364.805 47.2059 354.389 54.5465C362.377 48.3088 380.088 33.1668 375.694 28.4939C370.302 22.7589 357.508 44.0416 351.853 54.9546C354.352 45.2543 359.257 22.0552 352.88 21.0444C345.419 19.8617 347.766 42.6066 349.898 55.124C347.083 46.8621 337.442 21.9931 331.244 24.9063C325.354 27.6743 335.407 41.0457 343.909 50.5603C335.318 43.2741 321.808 33.1859 318.559 37.5766C314.216 43.4466 333.801 51.5182 346.007 55.5829C335.83 52.9878 314.204 48.5336 313.21 54.7096C312.058 61.8676 332.805 60.0822 345.537 58.0769C335.078 60.2343 314.334 65.5609 316.086 71.4669C318.064 78.137 334.648 68.6066 345.352 61.3329C336.711 68.3508 322.582 81.1548 326.559 85.384Z" fill="#FFA099"/>
<path opacity="0.5" fill-rule="evenodd" clip-rule="evenodd" d="M222.799 511.709C234.34 523.983 260.859 481.579 274.53 456.047C268.871 478.038 257.804 530.442 272.223 532.728C289.748 535.506 283.361 479.949 278.428 452.482C285.218 472.134 306.512 526.307 320.288 519.832C335.614 512.629 303.236 473.697 283.344 452.79C298.836 467.027 342.799 504.143 351.818 491.954C361.651 478.664 317.288 460.387 289.665 451.191C312.685 457.063 361.673 467.16 363.923 453.176C366.53 436.976 319.572 441.018 290.758 445.556C314.427 440.674 361.379 428.618 357.415 415.251C352.591 398.985 309.383 425.292 285.804 441.906C303.892 427.778 343.941 393.532 334.001 382.961C321.796 369.982 292.842 418.147 280.044 442.846C285.699 420.891 296.8 368.39 282.368 366.102C265.486 363.427 270.792 414.877 275.614 443.21C269.238 424.496 247.426 368.247 233.403 374.838C220.073 381.103 242.829 411.369 262.071 432.902C242.629 416.412 212.048 393.575 204.695 403.513C194.861 416.804 239.228 435.081 266.85 444.277C243.833 438.405 194.839 428.306 192.588 442.291C189.983 458.484 236.901 454.453 265.718 449.916C242.036 454.803 195.135 466.854 199.097 480.214C203.574 495.308 241.099 473.745 265.325 457.284C245.768 473.168 213.8 502.139 222.799 511.709Z" fill="#FFDB99"/>
<path opacity="0.5" fill-rule="evenodd" clip-rule="evenodd" d="M-27.6543 572.349C-28.0699 581.294 -2.13912 575.801 12.6231 571.616C2.16487 577.56 -21.8733 592.657 -17.4244 599.019C-12.0178 606.751 6.77635 583.815 15.4137 571.795C10.4362 581.645 -2.33169 609.774 5.21461 612.658C13.6068 615.866 16.4868 589.136 17.1103 573.808C17.4065 585.005 19.4944 615.486 27.457 614.443C36.1431 613.304 26.7397 589.586 20.052 575.622C26.3081 586.599 40.5322 609.07 46.6856 604.773C53.8157 599.795 34.9509 583.309 22.5947 573.955C33.1831 581.214 55.0957 594.741 58.7229 588.292C63.1386 580.442 37.1568 573.605 22.1376 570.711C34.1753 572.423 62.0224 575.128 62.3806 567.419C62.8201 557.96 33.8019 564.644 19.6788 568.856C30.1226 562.923 54.206 547.806 49.7533 541.438C44.5452 533.989 26.9151 554.998 17.9068 567.294C22.6799 557.95 36.0479 528.855 28.3662 525.919C21.0645 523.129 17.9355 543.001 16.835 558.308C15.9416 544.784 13.3554 524.659 6.86019 525.51C-1.82595 526.649 7.57742 550.366 14.2652 564.331C8.00908 553.354 -6.21502 530.883 -12.3685 535.18C-19.5003 540.159 -0.624248 556.652 11.7318 566.004C1.14734 558.748 -20.7784 545.21 -24.4067 551.66C-28.5007 558.939 -6.46539 565.346 8.73699 568.548C-4.5263 566.922 -27.3303 565.377 -27.6543 572.349Z" fill="#CE99FF"/>
<path opacity="0.5" fill-rule="evenodd" clip-rule="evenodd" d="M298.886 240.88C298.785 243.054 305.083 241.72 308.671 240.703C306.128 242.149 300.292 245.815 301.372 247.361C302.687 249.241 307.258 243.661 309.356 240.741C308.148 243.129 305.039 249.975 306.874 250.677C308.913 251.456 309.613 244.963 309.765 241.238C309.837 243.96 310.345 251.364 312.279 251.11C314.391 250.833 312.102 245.061 310.476 241.669C311.994 244.334 315.456 249.805 316.952 248.76C318.682 247.552 314.119 243.559 311.116 241.284C313.696 243.051 318.997 246.319 319.877 244.755C320.95 242.847 314.632 241.185 310.983 240.482C313.906 240.898 320.678 241.557 320.765 239.683C320.872 237.384 313.819 239.009 310.387 240.032C312.924 238.591 318.78 234.916 317.697 233.368C316.432 231.558 312.149 236.662 309.959 239.651C311.12 237.378 314.367 230.31 312.5 229.597C310.726 228.919 309.965 233.749 309.698 237.469C309.481 234.182 308.853 229.291 307.274 229.498C305.162 229.775 307.452 235.547 309.077 238.939C307.559 236.274 304.097 230.803 302.601 231.848C300.87 233.057 305.444 237.057 308.447 239.331C305.871 237.566 300.556 234.287 299.676 235.853C298.68 237.622 304.039 239.18 307.734 239.957C304.511 239.562 298.965 239.186 298.886 240.88Z" fill="#FF9999"/>
<path opacity="0.5" fill-rule="evenodd" clip-rule="evenodd" d="M28.7267 453.599C28.5864 456.618 37.3365 454.765 42.3196 453.352C38.7886 455.36 30.6778 460.454 32.1792 462.601C34.0031 465.209 40.3404 457.478 43.2581 453.419C41.5754 456.751 37.274 466.232 39.8193 467.205C42.6515 468.287 43.6237 459.268 43.8343 454.094C43.9347 457.876 44.6398 468.158 47.3266 467.806C50.2604 467.421 47.0804 459.406 44.8228 454.694C46.9318 458.396 51.739 465.993 53.8177 464.542C56.2232 462.862 49.8626 457.302 45.6918 454.144C49.2677 456.595 56.6575 461.156 57.8812 458.98C59.3709 456.332 50.612 454.025 45.5412 453.047C49.6095 453.625 58.9941 454.535 59.1149 451.935C59.2633 448.742 49.4692 450.998 44.702 452.42C48.2274 450.417 56.3557 445.315 54.8528 443.166C53.0953 440.652 47.1464 447.74 44.1053 451.891C45.7173 448.734 50.227 438.918 47.6347 437.927C45.1698 436.985 44.1137 443.694 43.7424 448.861C43.441 444.297 42.5681 437.501 40.3754 437.789C37.4483 438.172 40.6071 446.152 42.8638 450.869C40.7454 447.155 35.9599 439.605 33.8872 441.053C31.4746 442.737 37.8801 448.325 42.0501 451.478C38.4888 449.034 31.0507 444.433 29.8227 446.617C28.441 449.073 35.8763 451.235 41.0075 452.316C36.5304 451.768 28.836 451.247 28.7267 453.599Z" fill="#FF9999"/>
<path opacity="0.5" fill-rule="evenodd" clip-rule="evenodd" d="M59.0315 77.7752C58.8548 81.5778 69.8793 79.242 76.1534 77.4629C71.7093 79.9887 61.4887 86.4069 63.3799 89.1116C65.6777 92.3977 73.6641 82.6522 77.336 77.5427C75.2199 81.7302 69.7943 93.684 73.0015 94.9098C76.5667 96.2725 77.7913 84.9237 78.0572 78.4068C78.1841 83.1743 79.0727 96.1113 82.4546 95.668C86.1487 95.1838 82.1452 85.0917 79.3024 79.1575C81.9586 83.8198 88.0109 93.385 90.6281 91.5575C93.6584 89.4417 85.6419 82.4359 80.3901 78.46C84.891 81.5452 94.203 87.2933 95.7445 84.5527C97.6223 81.2144 86.5675 78.3072 80.1852 77.0781C85.2968 77.8057 97.1466 78.9588 97.2989 75.6802C97.4857 71.6594 85.1493 74.5016 79.1471 76.2919C83.5851 73.7706 93.8248 67.3437 91.9319 64.6367C89.7192 61.4722 82.2309 70.3929 78.4006 75.6205C80.4325 71.641 86.1057 59.2888 82.8426 58.0416C79.7382 56.8551 78.4084 65.3065 77.941 71.8135C77.5617 66.0652 76.4626 57.5054 73.701 57.8674C70.0092 58.3513 74.0055 68.4315 76.8481 74.3671C74.1886 69.7008 68.1437 60.1519 65.5285 61.9779C62.4982 64.0938 70.5147 71.0996 75.7666 75.0755C71.2656 71.9902 61.9536 66.2421 60.4121 68.9827C58.6727 72.0751 68.0303 74.7975 74.4917 76.1589C68.8532 75.4682 59.1691 74.8133 59.0315 77.7752Z" fill="#FF9999"/>
<path d="M142.739 91.56V94.164H132.351V100.296H141.283V102.872H132.351V109.62H142.739V112.224H129.383V91.56H142.739ZM158.599 98.896L153.615 105.588L158.543 112.252H154.847L151.851 107.996L148.911 112.252H145.215L150.059 105.588L145.103 98.896H148.827L151.851 103.264L154.875 98.896H158.599ZM165.473 109.508C166.509 109.508 167.713 108.976 168.469 108.136L170.513 110.18C169.365 111.44 167.265 112.336 165.585 112.336C161.609 112.336 158.809 109.536 158.809 105.616C158.809 101.668 161.609 98.868 165.585 98.868C167.349 98.868 169.309 99.764 170.513 101.052L168.469 103.068C167.713 102.228 166.509 101.696 165.473 101.696C163.261 101.696 161.777 103.236 161.777 105.616C161.777 107.968 163.261 109.508 165.473 109.508ZM178.43 112.308C174.65 112.308 171.99 109.536 171.99 105.616C171.99 101.668 174.65 98.896 178.43 98.896C182.574 98.896 183.89 102.284 183.974 102.508C184.786 104.412 184.534 106.54 184.534 106.764H174.902C175.238 108.556 176.75 109.788 178.43 109.788C180.642 109.788 181.538 108.5 181.762 108.108L184.142 109.172C183.498 110.684 181.622 112.308 178.43 112.308ZM181.734 104.412C181.454 102.76 180.502 101.416 178.43 101.416C176.638 101.416 175.238 102.676 174.902 104.412H181.734ZM186.913 92.232H189.881V112.224H186.913V92.232ZM192.971 92.232H195.939V112.224H192.971V92.232ZM204.613 112.308C200.833 112.308 198.173 109.536 198.173 105.616C198.173 101.668 200.833 98.896 204.613 98.896C208.757 98.896 210.073 102.284 210.157 102.508C210.969 104.412 210.717 106.54 210.717 106.764H201.085C201.421 108.556 202.933 109.788 204.613 109.788C206.825 109.788 207.721 108.5 207.945 108.108L210.325 109.172C209.681 110.684 207.805 112.308 204.613 112.308ZM207.917 104.412C207.637 102.76 206.685 101.416 204.613 101.416C202.821 101.416 201.421 102.676 201.085 104.412H207.917ZM222.421 104.888C222.421 102.76 221.329 101.472 219.481 101.472C217.661 101.5 216.261 102.928 216.289 104.888V112.252H213.321V98.896H216.289V100.716C217.129 99.68 218.557 98.924 219.845 98.924C222.365 98.924 225.389 100.576 225.389 104.776V112.252H222.421V104.888ZM229.726 112.252V101.444H227.206V98.868H229.726V94.192H232.694V98.868H235.858V101.444H232.694V112.252H229.726ZM243.646 90.86L243.198 106.54H240.342L239.81 90.86H243.646ZM241.798 109.172C242.806 109.172 243.506 109.872 243.506 110.908C243.506 111.944 242.806 112.672 241.798 112.672C240.762 112.672 240.034 111.944 240.034 110.908C240.034 109.872 240.762 109.172 241.798 109.172Z" fill="black"/>
<path d="M141.761 161.431L132.972 169.015L135.65 180.357C135.798 180.973 135.759 181.619 135.54 182.213C135.321 182.807 134.931 183.323 134.419 183.695C133.907 184.067 133.296 184.28 132.664 184.305C132.031 184.33 131.405 184.168 130.865 183.838L121.001 177.767L111.132 183.838C110.592 184.166 109.967 184.327 109.335 184.301C108.704 184.274 108.094 184.062 107.583 183.69C107.072 183.318 106.683 182.803 106.464 182.21C106.245 181.617 106.206 180.972 106.353 180.357L109.04 169.015L100.251 161.431C99.7734 161.018 99.4278 160.474 99.2576 159.865C99.0874 159.257 99.1002 158.612 99.2943 158.011C99.4885 157.41 99.8555 156.879 100.349 156.485C100.843 156.092 101.442 155.852 102.072 155.797L113.595 154.867L118.04 144.109C118.281 143.523 118.691 143.021 119.217 142.668C119.743 142.315 120.363 142.127 120.996 142.127C121.63 142.127 122.25 142.315 122.776 142.668C123.302 143.021 123.712 143.523 123.953 144.109L128.396 154.867L139.919 155.797C140.55 155.85 141.151 156.088 141.646 156.481C142.142 156.875 142.511 157.405 142.706 158.007C142.902 158.609 142.915 159.255 142.745 159.865C142.575 160.474 142.228 161.02 141.749 161.433L141.761 161.431Z" fill="#FFC61B"/>
<path d="M207.761 161.431L198.972 169.015L201.65 180.357C201.798 180.973 201.759 181.619 201.54 182.213C201.321 182.807 200.931 183.323 200.419 183.695C199.907 184.067 199.296 184.28 198.664 184.305C198.031 184.33 197.405 184.168 196.865 183.838L187.001 177.767L177.132 183.838C176.592 184.166 175.967 184.327 175.335 184.301C174.704 184.274 174.094 184.062 173.583 183.69C173.072 183.318 172.683 182.803 172.464 182.21C172.245 181.617 172.206 180.972 172.353 180.357L175.04 169.015L166.251 161.431C165.773 161.018 165.428 160.474 165.258 159.865C165.087 159.257 165.1 158.612 165.294 158.011C165.489 157.41 165.856 156.879 166.349 156.485C166.843 156.092 167.442 155.852 168.072 155.797L179.595 154.867L184.04 144.109C184.281 143.523 184.691 143.021 185.217 142.668C185.743 142.315 186.363 142.127 186.996 142.127C187.63 142.127 188.25 142.315 188.776 142.668C189.302 143.021 189.712 143.523 189.953 144.109L194.396 154.867L205.919 155.797C206.55 155.85 207.151 156.088 207.646 156.481C208.142 156.875 208.511 157.405 208.706 158.007C208.902 158.609 208.915 159.255 208.745 159.865C208.575 160.474 208.228 161.02 207.749 161.433L207.761 161.431Z" fill="#FFC61B"/>
<path d="M273.761 161.431L264.972 169.015L267.65 180.357C267.798 180.973 267.759 181.619 267.54 182.213C267.321 182.807 266.931 183.323 266.419 183.695C265.907 184.067 265.296 184.28 264.664 184.305C264.031 184.33 263.405 184.168 262.865 183.838L253.001 177.767L243.132 183.838C242.592 184.166 241.967 184.327 241.335 184.301C240.704 184.274 240.094 184.062 239.583 183.69C239.072 183.318 238.683 182.803 238.464 182.21C238.245 181.617 238.206 180.972 238.353 180.357L241.04 169.015L232.251 161.431C231.773 161.018 231.428 160.474 231.258 159.865C231.087 159.257 231.1 158.612 231.294 158.011C231.489 157.41 231.856 156.879 232.349 156.485C232.843 156.092 233.442 155.852 234.072 155.797L245.595 154.867L250.04 144.109C250.281 143.523 250.691 143.021 251.217 142.668C251.743 142.315 252.363 142.127 252.996 142.127C253.63 142.127 254.25 142.315 254.776 142.668C255.302 143.021 255.712 143.523 255.953 144.109L260.396 154.867L271.919 155.797C272.55 155.85 273.151 156.088 273.646 156.481C274.142 156.875 274.511 157.405 274.706 158.007C274.902 158.609 274.915 159.255 274.745 159.865C274.575 160.474 274.228 161.02 273.749 161.433L273.761 161.431Z" fill="#FFC61B"/>
<path fill-rule="evenodd" clip-rule="evenodd" d="M189.043 290.268C184.034 290.268 179.972 294.329 179.972 299.338V321.477C179.972 324.985 177.379 327.917 173.973 328.758C136.817 337.93 103.723 382.279 103.723 420.211C103.723 462.757 145.356 469 187.659 469C229.961 469 271.276 462.757 271.276 420.211C271.276 383.113 239.862 339.875 203.772 329.412C200.526 328.472 198.114 325.608 198.114 322.228V299.338C198.114 294.329 194.053 290.268 189.043 290.268Z" fill="#96DB5C"/>
<ellipse cx="143.364" cy="407.028" rx="12.7788" ry="6.42655" fill="#63AB26"/>
<ellipse cx="231.803" cy="407.028" rx="12.7788" ry="6.42655" fill="#63AB26"/>
<ellipse cx="187.669" cy="409.356" rx="14.7834" ry="9.3248" fill="#FAB7B7"/>
<ellipse cx="187.648" cy="412.318" rx="12.7788" ry="6.30054" fill="#F94747"/>
<path fill-rule="evenodd" clip-rule="evenodd" d="M184.639 391.414C183.212 399.576 176.111 405.779 167.566 405.779C159.02 405.779 151.919 399.576 150.493 391.414H135.578C133.958 391.414 132.646 390.101 132.646 388.481V388.298C132.646 386.678 133.958 385.365 135.578 385.365H150.493C151.919 377.203 159.02 371 167.566 371C176.111 371 183.212 377.203 184.639 385.365H190.688C192.115 377.203 199.216 371 207.761 371C216.306 371 223.407 377.203 224.834 385.365H239.748C241.368 385.365 242.681 386.678 242.681 388.298V388.481C242.681 390.101 241.368 391.414 239.748 391.414H224.834C223.407 399.576 216.306 405.779 207.761 405.779C199.216 405.779 192.115 399.576 190.688 391.414H184.639ZM178.871 388.39C178.871 394.653 173.809 399.731 167.566 399.731C161.322 399.731 156.261 394.653 156.261 388.39C156.261 382.126 161.322 377.049 167.566 377.049C173.809 377.049 178.871 382.126 178.871 388.39ZM207.761 399.731C214.005 399.731 219.066 394.653 219.066 388.39C219.066 382.126 214.005 377.049 207.761 377.049C201.518 377.049 196.456 382.126 196.456 388.39C196.456 394.653 201.518 399.731 207.761 399.731Z" fill="#F14245"/>
<path d="M187.217 288.222C173.27 288.222 142.883 269.889 158.325 256.649C170.679 246.057 187.217 271.417 187.217 288.222Z" fill="#FF588D"/>
<path d="M186.976 289.869C185.98 303.819 202.048 335.517 216.322 321.018C227.74 309.419 203.693 291.069 186.976 289.869Z" fill="#FF588D"/>
<path d="M185.653 287.923C198.868 283.45 221.811 256.336 202.956 248.744C187.873 242.67 180.293 272.001 185.653 287.923Z" fill="#FF588D"/>
<path d="M187.162 291.455C192.555 278.557 221.165 257.547 227.372 276.946C232.338 292.465 202.619 297.952 187.162 291.455Z" fill="#FF588D"/>
<path d="M187.201 287.93C175.052 281.061 139.603 282.063 146.567 301.202C152.139 316.512 178.968 302.568 187.201 287.93Z" fill="#FF588D"/>
<path d="M187.265 289.907C193.232 302.547 189.704 337.929 171.163 329.597C156.33 322.932 172.116 297.095 187.265 289.907Z" fill="#FF588D"/>
<ellipse cx="188.46" cy="289.469" rx="9.53333" ry="9.55875" fill="#FFDADA"/>
<path fill-rule="evenodd" clip-rule="evenodd" d="M165.253 379.938C164.382 379.261 163.129 379.419 162.455 380.291C161.781 381.163 161.941 382.419 162.812 383.096L168.222 387.302L161.061 388.831C159.98 389.062 159.292 390.126 159.522 391.207C159.753 392.289 160.815 392.979 161.895 392.748L172.612 390.46C172.87 390.405 173.105 390.302 173.311 390.164C173.683 390.045 174.024 389.817 174.281 389.484C174.955 388.612 174.795 387.356 173.924 386.679L165.253 379.938Z" fill="black"/>
<path fill-rule="evenodd" clip-rule="evenodd" d="M208.582 379.938C209.453 379.261 210.706 379.419 211.38 380.291C212.054 381.163 211.894 382.419 211.023 383.096L205.613 387.302L212.774 388.831C213.855 389.062 214.543 390.126 214.313 391.207C214.082 392.289 213.02 392.979 211.94 392.748L201.223 390.46C200.965 390.405 200.73 390.302 200.524 390.164C200.152 390.045 199.811 389.817 199.554 389.484C198.88 388.612 199.039 387.356 199.911 386.679L208.582 379.938Z" fill="black"/>
</g>
<defs>
<clipPath id="clip0_2233_11057">
<rect width="375" height="634" fill="white"/>
</clipPath>
<clipPath id="clip1_2233_11057">
<rect width="374" height="634" fill="white"/>
</clipPath>
</defs>
</svg>
