<svg width="375" height="550" viewBox="0 0 375 550" fill="none" xmlns="http://www.w3.org/2000/svg">
<g clip-path="url(#clip0_2233_10849)">
<rect width="374.003" height="550" fill="white"/>
<path d="M149.5 101.388L149.472 103.18C149.472 108.976 145.524 112.364 139.784 112.448C133.764 112.448 129.508 108.08 129.508 101.892C129.508 95.704 133.764 91.364 139.784 91.364C146.252 91.364 148.52 96.348 148.52 96.348L145.972 97.664C145.972 97.664 144.348 93.968 139.784 93.968C135.416 93.968 132.476 97.16 132.476 101.892C132.476 106.652 135.416 109.844 139.784 109.844C143.536 109.732 146.532 107.912 146.56 103.852H140.12V101.388H149.5ZM158.098 109.816C160.17 109.816 161.57 108.164 161.57 105.616C161.57 103.096 160.17 101.416 158.098 101.416C156.026 101.416 154.626 103.068 154.626 105.616C154.626 108.164 155.998 109.816 158.098 109.816ZM158.098 98.868C161.878 98.868 164.538 101.668 164.538 105.616C164.538 109.536 161.878 112.364 158.098 112.364C154.318 112.364 151.658 109.536 151.658 105.616C151.658 101.668 154.318 98.868 158.098 98.868ZM173.014 109.816C175.086 109.816 176.486 108.164 176.486 105.616C176.486 103.096 175.086 101.416 173.014 101.416C170.942 101.416 169.542 103.068 169.542 105.616C169.542 108.164 170.914 109.816 173.014 109.816ZM173.014 98.868C176.794 98.868 179.454 101.668 179.454 105.616C179.454 109.536 176.794 112.364 173.014 112.364C169.234 112.364 166.574 109.536 166.574 105.616C166.574 101.668 169.234 98.868 173.014 98.868ZM187.847 112.364C184.151 112.364 181.491 109.564 181.491 105.616C181.491 101.668 184.151 98.868 187.847 98.868C188.939 98.868 190.591 99.344 191.739 100.856V92.232H194.707V112.252H191.739V110.376C190.563 111.804 188.939 112.364 187.847 112.364ZM188.043 109.872C190.059 109.872 191.739 108.024 191.739 105.644C191.739 103.292 190.059 101.416 188.043 101.416C185.887 101.416 184.459 103.096 184.459 105.644C184.459 108.192 185.887 109.872 188.043 109.872ZM201.092 115.136C201.624 115.248 202.212 115.388 202.744 115.388C203.612 115.388 204.228 114.52 204.228 113.512V98.868H207.196V113.512C207.196 116.256 205.348 118.188 202.744 118.188C201.988 118.188 201.092 118.048 200.448 117.908L201.092 115.136ZM205.74 92.176C206.692 92.176 207.392 92.876 207.392 93.828C207.392 94.836 206.692 95.536 205.74 95.536C204.732 95.536 204.032 94.836 204.032 93.828C204.032 92.876 204.732 92.176 205.74 92.176ZM216.302 109.816C218.374 109.816 219.774 108.164 219.774 105.616C219.774 103.096 218.374 101.416 216.302 101.416C214.23 101.416 212.83 103.068 212.83 105.616C212.83 108.164 214.202 109.816 216.302 109.816ZM216.302 98.868C220.082 98.868 222.742 101.668 222.742 105.616C222.742 109.536 220.082 112.364 216.302 112.364C212.522 112.364 209.862 109.536 209.862 105.616C209.862 101.668 212.522 98.868 216.302 98.868ZM232.061 112.392C231.109 112.392 229.429 111.972 228.197 110.404V112.28H225.229V92.232H228.197V100.884C229.429 99.26 231.109 98.896 232.089 98.896C235.785 98.896 238.445 101.696 238.445 105.644C238.445 109.592 235.785 112.392 232.061 112.392ZM231.893 109.9C234.049 109.9 235.477 108.22 235.477 105.672C235.477 103.124 234.049 101.472 231.893 101.472C229.849 101.472 228.197 103.348 228.197 105.672C228.197 108.052 229.849 109.9 231.893 109.9ZM246.133 90.86L245.685 106.54H242.829L242.297 90.86H246.133ZM244.285 109.172C245.293 109.172 245.993 109.872 245.993 110.908C245.993 111.944 245.293 112.672 244.285 112.672C243.249 112.672 242.521 111.944 242.521 110.908C242.521 109.872 243.249 109.172 244.285 109.172Z" fill="black"/>
<path d="M142.997 161.431L134.208 169.015L136.886 180.357C137.033 180.973 136.995 181.619 136.776 182.213C136.557 182.807 136.167 183.323 135.655 183.695C135.143 184.067 134.532 184.28 133.899 184.305C133.267 184.33 132.641 184.168 132.1 183.838L122.237 177.767L112.368 183.838C111.828 184.166 111.203 184.327 110.571 184.301C109.939 184.274 109.33 184.062 108.819 183.69C108.308 183.318 107.918 182.803 107.699 182.21C107.481 181.617 107.442 180.972 107.589 180.357L110.276 169.015L101.487 161.431C101.009 161.018 100.664 160.474 100.493 159.865C100.323 159.257 100.336 158.612 100.53 158.011C100.724 157.41 101.091 156.879 101.585 156.485C102.079 156.092 102.678 155.852 103.307 155.797L114.831 154.867L119.276 144.109C119.517 143.523 119.926 143.021 120.453 142.668C120.979 142.315 121.599 142.127 122.232 142.127C122.866 142.127 123.485 142.315 124.012 142.668C124.538 143.021 124.948 143.523 125.188 144.109L129.632 154.867L141.155 155.797C141.786 155.85 142.386 156.088 142.882 156.481C143.378 156.875 143.747 157.405 143.942 158.007C144.137 158.609 144.151 159.255 143.981 159.865C143.81 160.474 143.464 161.02 142.985 161.433L142.997 161.431Z" fill="#FFC61B"/>
<path d="M208.997 161.431L200.208 169.015L202.886 180.357C203.033 180.973 202.995 181.619 202.776 182.213C202.557 182.807 202.167 183.323 201.655 183.695C201.143 184.067 200.532 184.28 199.899 184.305C199.267 184.33 198.641 184.168 198.1 183.838L188.237 177.767L178.368 183.838C177.828 184.166 177.203 184.327 176.571 184.301C175.939 184.274 175.33 184.062 174.819 183.69C174.308 183.318 173.918 182.803 173.699 182.21C173.481 181.617 173.442 180.972 173.589 180.357L176.276 169.015L167.487 161.431C167.009 161.018 166.664 160.474 166.493 159.865C166.323 159.257 166.336 158.612 166.53 158.011C166.724 157.41 167.091 156.879 167.585 156.485C168.079 156.092 168.678 155.852 169.307 155.797L180.831 154.867L185.276 144.109C185.517 143.523 185.926 143.021 186.453 142.668C186.979 142.315 187.599 142.127 188.232 142.127C188.866 142.127 189.485 142.315 190.012 142.668C190.538 143.021 190.948 143.523 191.188 144.109L195.632 154.867L207.155 155.797C207.786 155.85 208.386 156.088 208.882 156.481C209.378 156.875 209.747 157.405 209.942 158.007C210.137 158.609 210.151 159.255 209.981 159.865C209.81 160.474 209.464 161.02 208.985 161.433L208.997 161.431Z" fill="#FFC61B"/>
<path d="M276.698 157.749C276.456 157.002 275.997 156.343 275.381 155.856C274.764 155.37 274.017 155.077 273.233 155.015L262.181 154.122L257.915 143.808C257.615 143.079 257.105 142.455 256.451 142.017C255.796 141.578 255.025 141.344 254.237 141.344C253.449 141.344 252.678 141.578 252.024 142.017C251.369 142.455 250.859 143.079 250.559 143.808L246.298 154.124L235.245 155.015C234.46 155.08 233.712 155.375 233.095 155.863C232.477 156.352 232.018 157.012 231.775 157.761C231.531 158.51 231.515 159.314 231.727 160.072C231.939 160.831 232.371 161.509 232.968 162.023L241.401 169.296L238.823 180.175C238.635 180.942 238.68 181.748 238.951 182.489C239.222 183.231 239.708 183.875 240.347 184.34C240.985 184.804 241.748 185.068 242.537 185.098C243.326 185.128 244.106 184.922 244.778 184.507L254.237 178.685L263.696 184.507C264.368 184.919 265.147 185.123 265.934 185.092C266.722 185.062 267.482 184.798 268.12 184.335C268.758 183.872 269.244 183.23 269.516 182.49C269.789 181.751 269.836 180.947 269.651 180.181L267.073 169.302L275.507 162.029C276.107 161.514 276.541 160.832 276.753 160.07C276.965 159.308 276.946 158.5 276.698 157.749ZM262.934 166.675C262.609 166.955 262.367 167.32 262.235 167.728C262.103 168.137 262.085 168.574 262.184 168.992L264.702 179.624L255.466 173.945C255.096 173.717 254.671 173.597 254.237 173.597C253.803 173.597 253.378 173.717 253.009 173.945L243.772 179.624L246.29 168.999C246.389 168.582 246.372 168.145 246.239 167.736C246.107 167.328 245.865 166.963 245.54 166.683L237.284 159.554L248.104 158.681C248.535 158.646 248.948 158.493 249.297 158.239C249.646 157.985 249.918 157.639 250.083 157.24L254.237 147.181L258.391 157.24C258.556 157.639 258.828 157.985 259.178 158.239C259.527 158.493 259.939 158.646 260.37 158.681L271.19 159.554L262.934 166.675Z" fill="#FFC61B"/>
<path fill-rule="evenodd" clip-rule="evenodd" d="M190.28 290.268C185.27 290.268 181.209 294.329 181.209 299.338V321.477C181.209 324.985 178.616 327.917 175.21 328.758C138.054 337.93 104.959 382.279 104.959 420.211C104.959 462.757 146.593 469 188.896 469C231.198 469 272.513 462.757 272.513 420.211C272.513 383.113 241.099 339.875 205.009 329.412C201.763 328.472 199.35 325.608 199.35 322.228V299.338C199.35 294.329 195.289 290.268 190.28 290.268Z" fill="#96DB5C"/>
<ellipse cx="144.6" cy="407.028" rx="12.7788" ry="6.42655" fill="#63AB26"/>
<ellipse cx="233.04" cy="407.028" rx="12.7788" ry="6.42655" fill="#63AB26"/>
<ellipse cx="188.906" cy="409.356" rx="14.7834" ry="9.3248" fill="#FAB7B7"/>
<ellipse cx="188.884" cy="412.318" rx="12.7788" ry="6.30054" fill="#F94747"/>
<path d="M214.708 387.848C215.815 387.848 216.737 386.937 216.466 385.864C216.114 384.468 215.394 383.181 214.365 382.145C212.861 380.633 210.821 379.783 208.695 379.783C206.568 379.783 204.529 380.633 203.025 382.145C201.996 383.181 201.275 384.468 200.923 385.864C200.652 386.937 201.574 387.848 202.681 387.848V387.848C203.788 387.848 204.646 386.898 205.171 385.924C205.354 385.586 205.585 385.273 205.86 384.997C206.612 384.24 207.632 383.816 208.695 383.816C209.758 383.816 210.778 384.24 211.53 384.997C211.805 385.273 212.036 385.586 212.218 385.924C212.744 386.898 213.601 387.848 214.708 387.848V387.848Z" fill="#100F0F"/>
<path d="M174.868 387.849C175.975 387.849 176.897 386.939 176.626 385.865C176.273 384.47 175.553 383.182 174.524 382.147C173.02 380.634 170.981 379.785 168.854 379.785C166.728 379.785 164.688 380.634 163.184 382.147C162.155 383.182 161.435 384.47 161.082 385.865C160.811 386.939 161.733 387.849 162.84 387.849V387.849C163.948 387.849 164.805 386.9 165.331 385.926C165.513 385.588 165.744 385.275 166.019 384.998C166.771 384.242 167.791 383.817 168.854 383.817C169.917 383.817 170.937 384.242 171.689 384.998C171.964 385.275 172.195 385.588 172.377 385.926C172.903 386.9 173.761 387.849 174.868 387.849V387.849Z" fill="#100F0F"/>
<path fill-rule="evenodd" clip-rule="evenodd" d="M185.876 391.414C184.449 399.576 177.348 405.779 168.803 405.779C160.257 405.779 153.156 399.576 151.729 391.414H136.815C135.195 391.414 133.882 390.101 133.882 388.481V388.298C133.882 386.678 135.195 385.365 136.815 385.365H151.729C153.156 377.203 160.257 371 168.803 371C177.348 371 184.449 377.203 185.876 385.365H191.925C193.352 377.203 200.453 371 208.998 371C217.543 371 224.644 377.203 226.071 385.365H240.984C242.604 385.365 243.917 386.678 243.917 388.298V388.481C243.917 390.101 242.604 391.414 240.984 391.414H226.071C224.644 399.576 217.543 405.779 208.998 405.779C200.453 405.779 193.352 399.576 191.925 391.414H185.876ZM180.107 388.39C180.107 394.653 175.046 399.731 168.802 399.731C162.558 399.731 157.497 394.653 157.497 388.39C157.497 382.126 162.558 377.049 168.802 377.049C175.046 377.049 180.107 382.126 180.107 388.39ZM208.998 399.731C215.241 399.731 220.303 394.653 220.303 388.39C220.303 382.126 215.241 377.049 208.998 377.049C202.754 377.049 197.693 382.126 197.693 388.39C197.693 394.653 202.754 399.731 208.998 399.731Z" fill="#F14245"/>
<path d="M190.284 257C166.647 274.463 173.49 303.151 181.576 306.269H200.237C209.566 302.527 215.786 274.463 190.284 257Z" fill="#FFDADA"/>
<path d="M191.598 305.636C184.514 308.583 170.876 308.221 173.001 283.193C181.414 288.407 196.912 300.196 191.598 305.636Z" fill="#FF588D"/>
<path d="M190.194 306.269C197.279 309.216 210.757 308.221 208.632 283.193C200.219 288.407 184.88 300.828 190.194 306.269Z" fill="#FF588D"/>
<path opacity="0.7" d="M33.2191 280.405C19.7363 315.01 6.25397 319.03 -29.3406 315.01C6.25397 330.618 12.0318 341.054 6.25397 378.899C19.7363 341.054 33.2191 332.549 67.5958 341.054C33.2191 324.824 27.4408 315.01 33.2191 280.405Z" fill="#FEBB2B"/>
<path opacity="0.7" d="M102.669 280.024C99.7409 287.541 96.8123 288.414 89.0808 287.541C96.8123 290.931 98.0673 293.198 96.8123 301.418C99.7409 293.198 102.669 291.35 110.137 293.198C102.669 289.672 101.414 287.541 102.669 280.024Z" fill="#FEBB2B"/>
<path opacity="0.7" d="M80.8878 362.35C77.9591 369.867 75.0306 370.74 67.299 369.867C75.0306 373.257 76.2856 375.524 75.0306 383.744C77.9591 375.524 80.8878 373.676 88.3548 375.524C80.8878 371.998 79.6326 369.867 80.8878 362.35Z" fill="#FEBB2B"/>
<path opacity="0.7" d="M56.089 378.08C47.4605 400.226 38.8323 402.799 16.053 400.226C38.8323 410.214 42.5299 416.893 38.8323 441.112C47.4605 416.893 56.089 411.45 78.0889 416.893C56.089 406.506 52.3911 400.226 56.089 378.08Z" fill="#FEBB2B"/>
<path opacity="0.7" d="M342.242 285.405C355.725 320.01 369.207 324.03 404.802 320.01C369.207 335.618 363.429 346.054 369.207 383.899C355.725 346.054 342.242 337.549 307.865 346.054C342.242 329.824 348.02 320.01 342.242 285.405Z" fill="#FEBB2B"/>
<path opacity="0.7" d="M272.789 285.024C275.718 292.541 278.647 293.414 286.378 292.541C278.647 295.931 277.392 298.198 278.647 306.418C275.718 298.198 272.789 296.35 265.322 298.198C272.789 294.672 274.045 292.541 272.789 285.024Z" fill="#FEBB2B"/>
<path opacity="0.7" d="M294.574 367.35C297.502 374.867 300.431 375.74 308.162 374.867C300.431 378.257 299.176 380.524 300.431 388.744C297.502 380.524 294.574 378.676 287.107 380.524C294.574 376.998 295.829 374.867 294.574 367.35Z" fill="#FEBB2B"/>
<path opacity="0.7" d="M319.372 383.08C328 405.226 336.629 407.799 359.408 405.226C336.629 415.214 332.931 421.893 336.629 446.112C328 421.893 319.372 416.45 297.372 421.893C319.372 411.506 323.07 405.226 319.372 383.08Z" fill="#FEBB2B"/>
</g>
<defs>
<clipPath id="clip0_2233_10849">
<rect width="375" height="550" fill="white"/>
</clipPath>
</defs>
</svg>
