<svg width="24" height="24" viewBox="0 0 24 24" fill="none" xmlns="http://www.w3.org/2000/svg">
<path d="M22.5 5.24916V9.74916C22.5 9.94807 22.421 10.1388 22.2803 10.2795C22.1397 10.4201 21.9489 10.4992 21.75 10.4992H17.25C17.0511 10.4992 16.8603 10.4201 16.7197 10.2795C16.579 10.1388 16.5 9.94807 16.5 9.74916C16.5 9.55024 16.579 9.35948 16.7197 9.21883C16.8603 9.07818 17.0511 8.99916 17.25 8.99916H19.8188L17.3259 6.71541L17.3025 6.69291C16.2601 5.65087 14.9337 4.93908 13.4891 4.64648C12.0445 4.35388 10.5457 4.49342 9.17991 5.04769C7.81414 5.60195 6.64197 6.54636 5.80982 7.76293C4.97768 8.97951 4.52245 10.4143 4.501 11.8881C4.47956 13.3619 4.89286 14.8093 5.68926 16.0496C6.48566 17.2899 7.62986 18.268 8.97892 18.8617C10.328 19.4555 11.8221 19.6386 13.2746 19.3881C14.7271 19.1377 16.0736 18.4648 17.1459 17.4535C17.2905 17.3168 17.4835 17.2431 17.6825 17.2486C17.8814 17.2541 18.07 17.3385 18.2067 17.4831C18.3435 17.6276 18.4172 17.8206 18.4117 18.0196C18.4061 18.2185 18.3218 18.4071 18.1772 18.5438C16.5098 20.1252 14.298 21.0043 12 20.9992H11.8763C10.4023 20.979 8.95579 20.597 7.66398 19.8869C6.37216 19.1768 5.27455 18.1602 4.46762 16.9265C3.6607 15.6929 3.16915 14.2799 3.0362 12.8117C2.90324 11.3436 3.13294 9.8653 3.70511 8.50674C4.27728 7.14818 5.1744 5.95096 6.31762 5.02031C7.46085 4.08966 8.81517 3.45407 10.2616 3.1694C11.7079 2.88474 13.2021 2.95971 14.6127 3.38774C16.0234 3.81576 17.3073 4.58374 18.3516 5.62416L21 8.04291V5.24916C21 5.05024 21.079 4.85948 21.2197 4.71883C21.3603 4.57817 21.5511 4.49916 21.75 4.49916C21.9489 4.49916 22.1397 4.57817 22.2803 4.71883C22.421 4.85948 22.5 5.05024 22.5 5.24916Z" fill="#737373"/>
</svg>
