<svg width="24" height="26" viewBox="0 0 24 26" fill="none" xmlns="http://www.w3.org/2000/svg">
<path d="M19.2806 11.9499C19.2109 12.0254 19.1282 12.0853 19.0371 12.1262C18.9461 12.1671 18.8485 12.1882 18.7499 12.1882C18.6514 12.1882 18.5538 12.1671 18.4627 12.1262C18.3717 12.0853 18.289 12.0254 18.2193 11.9499L12.7499 6.0237V21.9375C12.7499 22.153 12.6709 22.3597 12.5303 22.5121C12.3896 22.6644 12.1988 22.75 11.9999 22.75C11.801 22.75 11.6103 22.6644 11.4696 22.5121C11.3289 22.3597 11.2499 22.153 11.2499 21.9375V6.0237L5.78055 11.9499C5.63982 12.1023 5.44895 12.188 5.24993 12.188C5.05091 12.188 4.86003 12.1023 4.7193 11.9499C4.57857 11.7974 4.49951 11.5906 4.49951 11.375C4.49951 11.1594 4.57857 10.9526 4.7193 10.8002L11.4693 3.48768C11.539 3.41214 11.6217 3.35221 11.7127 3.31132C11.8038 3.27044 11.9014 3.24939 11.9999 3.24939C12.0985 3.24939 12.1961 3.27044 12.2871 3.31132C12.3782 3.35221 12.4609 3.41214 12.5306 3.48768L19.2806 10.8002C19.3503 10.8756 19.4056 10.9653 19.4433 11.0639C19.4811 11.1625 19.5005 11.2683 19.5005 11.375C19.5005 11.4818 19.4811 11.5875 19.4433 11.6862C19.4056 11.7848 19.3503 11.8744 19.2806 11.9499Z" fill="#FFB733"/>
</svg>
