<svg width="24" height="24" viewBox="0 0 24 24" fill="none" xmlns="http://www.w3.org/2000/svg">
<path d="M21 6.66601C20.8235 6.75744 20.6178 6.77502 20.4283 6.7149C20.2388 6.65478 20.0809 6.52187 19.9894 6.34539C19.2735 4.93116 18.1899 3.73586 16.8525 2.88508C16.7692 2.83251 16.697 2.76403 16.6401 2.68357C16.5832 2.60311 16.5427 2.51223 16.521 2.41612C16.4992 2.32001 16.4966 2.22055 16.5133 2.12343C16.5299 2.02631 16.5656 1.93342 16.6181 1.85008C16.6707 1.76673 16.7392 1.69455 16.8196 1.63766C16.9001 1.58078 16.991 1.5403 17.0871 1.51853C17.1832 1.49677 17.2827 1.49415 17.3798 1.51082C17.4769 1.52749 17.5698 1.56313 17.6531 1.6157C19.2118 2.6137 20.4775 4.00779 21.3206 5.65539C21.4121 5.83194 21.4296 6.03756 21.3695 6.22707C21.3094 6.41658 21.1765 6.57446 21 6.66601ZM3.34783 6.75039C3.48523 6.75033 3.61998 6.71253 3.73736 6.64111C3.85474 6.56969 3.95025 6.46739 4.01346 6.34539C4.72933 4.93116 5.81291 3.73586 7.15033 2.88508C7.31866 2.77891 7.43792 2.61022 7.48187 2.41612C7.52583 2.22202 7.49087 2.01841 7.38471 1.85008C7.27854 1.68175 7.10985 1.56249 6.91575 1.51853C6.72165 1.47458 6.51804 1.50953 6.34971 1.6157C4.79102 2.6137 3.52537 4.00779 2.68221 5.65539C2.62299 5.76969 2.59419 5.8973 2.59858 6.02596C2.60297 6.15461 2.6404 6.27997 2.70726 6.38997C2.77413 6.49996 2.86818 6.5909 2.98037 6.65402C3.09256 6.71715 3.2191 6.75033 3.34783 6.75039ZM20.7947 16.4948C20.9276 16.7226 20.998 16.9815 20.9989 17.2452C20.9998 17.509 20.9312 17.7683 20.7999 17.9971C20.6686 18.2259 20.4793 18.4159 20.251 18.5482C20.0228 18.6805 19.7638 18.7502 19.5 18.7504H15.675C15.5029 19.5981 15.043 20.3602 14.3732 20.9077C13.7035 21.4551 12.865 21.7541 12 21.7541C11.135 21.7541 10.2966 21.4551 9.62682 20.9077C8.95707 20.3602 8.49715 19.5981 8.32502 18.7504H4.50002C4.23641 18.7499 3.9776 18.6799 3.74965 18.5475C3.5217 18.4151 3.33266 18.225 3.20158 17.9963C3.0705 17.7676 3.002 17.5084 3.00299 17.2448C3.00398 16.9812 3.07441 16.7225 3.20721 16.4948C4.05189 15.037 4.50002 12.9641 4.50002 10.5004C4.50002 8.51126 5.29019 6.60361 6.69672 5.19709C8.10324 3.79056 10.0109 3.00039 12 3.00039C13.9891 3.00039 15.8968 3.79056 17.3033 5.19709C18.7098 6.60361 19.5 8.51126 19.5 10.5004C19.5 12.9632 19.9481 15.036 20.7947 16.4948ZM14.1206 18.7504H9.87939C10.0348 19.1886 10.3221 19.5679 10.7018 19.8361C11.0816 20.1044 11.5351 20.2484 12 20.2484C12.465 20.2484 12.9185 20.1044 13.2982 19.8361C13.6779 19.5679 13.9653 19.1886 14.1206 18.7504ZM19.5 17.2504C18.5025 15.5376 18 13.267 18 10.5004C18 8.90909 17.3679 7.38297 16.2427 6.25775C15.1174 5.13253 13.5913 4.50039 12 4.50039C10.4087 4.50039 8.8826 5.13253 7.75738 6.25775C6.63216 7.38297 6.00002 8.90909 6.00002 10.5004C6.00002 13.2679 5.49564 15.5385 4.50002 17.2504H19.5Z" fill="#0D0D0D"/>
</svg>
