<svg width="24" height="24" viewBox="0 0 24 24" fill="none" xmlns="http://www.w3.org/2000/svg">
<g id="CaretLeft">
<path id="Vector" d="M15.5302 18.9698C15.5999 19.0395 15.6552 19.1222 15.6929 19.2132C15.7306 19.3043 15.75 19.4019 15.75 19.5004C15.75 19.599 15.7306 19.6965 15.6929 19.7876C15.6552 19.8786 15.5999 19.9614 15.5302 20.031C15.4606 20.1007 15.3778 20.156 15.2868 20.1937C15.1957 20.2314 15.0982 20.2508 14.9996 20.2508C14.9011 20.2508 14.8035 20.2314 14.7124 20.1937C14.6214 20.156 14.5387 20.1007 14.469 20.031L6.96899 12.531C6.89926 12.4614 6.84394 12.3787 6.80619 12.2876C6.76845 12.1966 6.74902 12.099 6.74902 12.0004C6.74902 11.9019 6.76845 11.8043 6.80619 11.7132C6.84394 11.6222 6.89926 11.5394 6.96899 11.4698L14.469 3.96979C14.6097 3.82906 14.8006 3.75 14.9996 3.75C15.1986 3.75 15.3895 3.82906 15.5302 3.96979C15.671 4.11052 15.75 4.30139 15.75 4.50042C15.75 4.69944 15.671 4.89031 15.5302 5.03104L8.55993 12.0004L15.5302 18.9698Z" fill="#0D0D0D"/>
</g>
</svg>
