<svg width="43" height="35" viewBox="0 0 43 35" fill="none" xmlns="http://www.w3.org/2000/svg">
<path d="M30.8751 6.2498C30.8754 5.90719 30.7952 5.56929 30.641 5.26334C30.4868 4.9574 30.2629 4.69194 29.9873 4.48838C29.7117 4.28481 29.3922 4.14882 29.0544 4.09137C28.7167 4.03391 28.3701 4.05659 28.0427 4.15759C27.7154 4.25858 27.4163 4.43507 27.1696 4.67282C26.9229 4.91057 26.7355 5.20295 26.6225 5.52639C26.5095 5.84983 26.474 6.19529 26.519 6.53494C26.564 6.87459 26.6881 7.19893 26.8813 7.48183L24.7884 10.06L22.9063 5.73417C23.2496 5.44528 23.4957 5.05783 23.6113 4.62435C23.727 4.19087 23.7065 3.73232 23.5528 3.31085C23.399 2.88938 23.1194 2.52538 22.7518 2.26818C22.3842 2.01099 21.9464 1.87305 21.4977 1.87305C21.0491 1.87305 20.6113 2.01099 20.2437 2.26818C19.8761 2.52538 19.5965 2.88938 19.4427 3.31085C19.289 3.73232 19.2685 4.19087 19.3841 4.62435C19.4998 5.05783 19.7459 5.44528 20.0891 5.73417L18.2118 10.0576L16.1188 7.47948C16.3877 7.08554 16.5204 6.61451 16.4968 6.13815C16.4732 5.66178 16.2946 5.20618 15.9881 4.84073C15.6816 4.47528 15.2641 4.22001 14.7991 4.1138C14.3342 4.00759 13.8472 4.05626 13.4125 4.25239C12.9777 4.44852 12.619 4.78137 12.3909 5.20024C12.1628 5.61911 12.0778 6.10106 12.149 6.57267C12.2201 7.04428 12.4435 7.47972 12.785 7.81267C13.1265 8.14562 13.5674 8.35783 14.0407 8.41698L15.172 15.2053C15.2206 15.4971 15.3712 15.7622 15.5969 15.9535C15.8226 16.1448 16.1089 16.2498 16.4048 16.2498H26.5954C26.8913 16.2498 27.1775 16.1448 27.4033 15.9535C27.629 15.7622 27.7796 15.4971 27.8282 15.2053L28.9587 8.42011C29.4877 8.35404 29.9744 8.09702 30.3273 7.69737C30.6802 7.29772 30.875 6.78295 30.8751 6.2498ZM21.5001 3.1248C21.6855 3.1248 21.8668 3.17978 22.0209 3.28279C22.1751 3.38581 22.2953 3.53223 22.3662 3.70353C22.4372 3.87484 22.4557 4.06334 22.4196 4.24519C22.3834 4.42705 22.2941 4.5941 22.163 4.72521C22.0319 4.85632 21.8648 4.94561 21.683 4.98178C21.5011 5.01796 21.3126 4.99939 21.1413 4.92843C20.97 4.85748 20.8236 4.73731 20.7206 4.58314C20.6176 4.42897 20.5626 4.24772 20.5626 4.0623C20.5626 3.81366 20.6614 3.5752 20.8372 3.39938C21.013 3.22357 21.2514 3.1248 21.5001 3.1248ZM13.3751 6.2498C13.3751 6.06438 13.4301 5.88312 13.5331 5.72895C13.6361 5.57478 13.7825 5.45462 13.9538 5.38366C14.1251 5.3127 14.3136 5.29414 14.4955 5.33031C14.6773 5.36648 14.8444 5.45577 14.9755 5.58688C15.1066 5.718 15.1959 5.88504 15.2321 6.0669C15.2682 6.24876 15.2497 6.43726 15.1787 6.60856C15.1078 6.77987 14.9876 6.92629 14.8334 7.0293C14.6793 7.13231 14.498 7.1873 14.3126 7.1873C14.0639 7.1873 13.8255 7.08852 13.6497 6.91271C13.4739 6.73689 13.3751 6.49844 13.3751 6.2498ZM26.5954 14.9998H16.4048L15.3173 8.47792L17.8899 11.6404C17.9482 11.7132 18.022 11.772 18.106 11.8126C18.1899 11.8531 18.2819 11.8744 18.3751 11.8748C18.4033 11.8749 18.4315 11.8731 18.4595 11.8693C18.5659 11.8549 18.6669 11.8132 18.7525 11.7483C18.8382 11.6834 18.9057 11.5976 18.9485 11.499L21.2376 6.23339C21.4119 6.25525 21.5883 6.25525 21.7626 6.23339L24.0516 11.499C24.0945 11.5976 24.162 11.6834 24.2476 11.7483C24.3333 11.8132 24.4342 11.8549 24.5407 11.8693C24.5687 11.8731 24.5969 11.8749 24.6251 11.8748C24.7183 11.8744 24.8103 11.8531 24.8942 11.8126C24.9782 11.772 25.052 11.7132 25.1102 11.6404L27.6829 8.4748L26.5954 14.9998ZM28.6876 7.1873C28.5022 7.1873 28.3209 7.13231 28.1667 7.0293C28.0126 6.92629 27.8924 6.77987 27.8214 6.60856C27.7505 6.43726 27.7319 6.24876 27.7681 6.0669C27.8043 5.88504 27.8936 5.718 28.0247 5.58688C28.1558 5.45577 28.3228 5.36648 28.5047 5.33031C28.6865 5.29414 28.875 5.3127 29.0463 5.38366C29.2177 5.45462 29.3641 5.57478 29.4671 5.72895C29.5701 5.88312 29.6251 6.06438 29.6251 6.2498C29.6251 6.49844 29.5263 6.73689 29.3505 6.91271C29.1747 7.08852 28.9362 7.1873 28.6876 7.1873Z" fill="#050300"/>
<path d="M11.7349 25.7793C11.7349 26.6094 12.3989 27.459 13.4927 27.8301L13.0923 28.5137C12.2378 28.2305 11.6323 27.6641 11.315 26.9805C10.9927 27.7227 10.3921 28.3574 9.53762 28.6797L9.10793 27.9766C10.2017 27.5566 10.856 26.6387 10.856 25.7793V25.75H9.33254V25.0176H10.856V24.1191H11.7349V25.0176H13.2388V25.75H11.7349V25.7793ZM16.5493 24.0898V28.7383H15.6704V26.7656H14.6743V28.6699H13.7857V24.2461H14.6743V26.0137H15.6704V24.0898H16.5493ZM16.5493 29.0996V31.209H11.6177V32.0195H16.8814V32.7227H10.6997V30.5254H15.6411V29.8027H10.6802V29.0996H16.5493ZM24.7471 24.0898V30.5254H23.8291V24.0898H24.7471ZM24.9912 31.8926V32.6445H18.9658V30.0176H19.8936V31.8926H24.9912ZM21.9639 24.6953V27.3027H18.8682V28.5625C20.4795 28.5576 21.5732 28.5039 22.8721 28.2695L22.9697 29.0312C21.5928 29.2754 20.4307 29.3242 18.6924 29.3242H17.96V26.5996H21.0459V25.4375H17.9404V24.6953H21.9639ZM29.1362 26.6582C29.1362 28.123 30.0932 29.6367 31.4409 30.2129L30.9331 30.9355C29.9028 30.4814 29.0825 29.5195 28.6772 28.3477C28.272 29.5977 27.4468 30.6621 26.4311 31.1602L25.894 30.4277C27.2124 29.8125 28.1889 28.1621 28.1987 26.6582V25.7305H26.1968V24.959H31.1284V25.7305H29.1362V26.6582ZM33.1596 24.0801V32.8301H32.2319V24.0801H33.1596Z" fill="#050300"/>
</svg>
