<svg width="167" height="184" viewBox="0 0 170 184" fill="none" xmlns="http://www.w3.org/2000/svg">
<path fill-rule="evenodd" clip-rule="evenodd" d="M109.618 16.6915C109.618 23.2943 105.757 29.0016 100.154 31.7089C96.9427 33.2609 94.0793 36.095 94.0793 39.662C94.0793 42.9393 96.4223 45.7159 99.5752 46.6104C135.607 56.8325 167 99.4414 167 135.994C167 177.857 125.822 184 83.659 184C41.4961 184 0 177.857 0 135.994C0 103.421 25.1225 66.0382 56.1342 51.0509C66.918 45.8394 75.9979 35.9461 75.9979 23.9691V17.176C75.9979 17.1072 75.9987 17.0386 76.0002 16.9702C75.9987 16.8775 75.9979 16.7846 75.9979 16.6915C75.9979 7.47305 83.524 0 92.8079 0C102.092 0 109.618 7.47305 109.618 16.6915Z" fill="#96DB5C"/>
<ellipse cx="39.5106" cy="123.023" rx="12.7366" ry="6.32345" fill="#63AB26"/>
<ellipse cx="127.657" cy="123.023" rx="12.7366" ry="6.32345" fill="#63AB26"/>
<ellipse cx="83.6696" cy="125.314" rx="14.7346" ry="9.1752" fill="#FAB7B7"/>
<ellipse cx="83.6492" cy="128.229" rx="12.7366" ry="6.19946" fill="#F94747"/>
<ellipse cx="103.392" cy="104.15" rx="7.99162" ry="7.93531" fill="#100F0F"/>
<ellipse cx="63.6833" cy="104.15" rx="7.99162" ry="7.93531" fill="#100F0F"/>
<path fill-rule="evenodd" clip-rule="evenodd" d="M80.5412 110.35C79.1191 118.381 72.0415 124.485 63.5245 124.485C55.0075 124.485 47.9299 118.381 46.5078 110.35H31.6957C30.0523 110.35 28.72 109.018 28.72 107.374C28.72 105.731 30.0523 104.398 31.6957 104.398H46.5078C47.9299 96.3671 55.0075 90.2637 63.5245 90.2637C72.0415 90.2637 79.1191 96.3671 80.5412 104.398H86.5705C87.9926 96.3671 95.0702 90.2637 103.587 90.2637C112.104 90.2637 119.182 96.3671 120.604 104.398H135.416C137.059 104.398 138.392 105.731 138.392 107.374C138.392 109.018 137.059 110.35 135.416 110.35H120.604C119.182 118.381 112.104 124.485 103.587 124.485C95.0702 124.485 87.9926 118.381 86.5705 110.35H80.5412ZM74.7922 107.374C74.7922 113.537 69.7475 118.533 63.5245 118.533C57.3016 118.533 52.2569 113.537 52.2569 107.374C52.2569 101.211 57.3016 96.2152 63.5245 96.2152C69.7475 96.2152 74.7922 101.211 74.7922 107.374ZM103.587 118.533C109.81 118.533 114.855 113.537 114.855 107.374C114.855 101.211 109.81 96.2152 103.587 96.2152C97.3643 96.2152 92.3196 101.211 92.3196 107.374C92.3196 113.537 97.3643 118.533 103.587 118.533Z" fill="#F14245"/>
<path fill-rule="evenodd" clip-rule="evenodd" d="M143.331 55.8537C140.662 56.3305 137.873 64.9871 136.894 69.4234C136.452 68.9876 136.017 68.576 135.594 68.1938H31.2813C28.2902 70.0785 20.1895 80.3448 16.2014 86.2963H150.425C149.902 85.4758 149.15 84.3719 148.236 83.0975C156.705 84.2722 167.635 85.4277 168.811 83.0524C170.292 80.0622 166.12 67.611 162.181 64.8984C159.546 63.083 150.707 69.1088 144.849 73.1027C144.101 73.6127 143.401 74.0895 142.77 74.5127C147.894 70.6234 156.59 63.5004 156.005 61.7754C155.232 59.4978 146.732 55.2463 143.331 55.8537Z" fill="#FDFDFD"/>
<path d="M73.1457 75.37C73.1457 75.09 73.2017 74.8567 73.3137 74.67C73.435 74.474 73.5704 74.3247 73.7197 74.222C73.869 74.1193 73.9857 74.068 74.0697 74.068V74.054C73.8644 74.054 73.673 73.9467 73.4957 73.732C73.3184 73.5173 73.2297 73.256 73.2297 72.948C73.2297 72.6307 73.3324 72.374 73.5377 72.178C73.7524 71.982 74.0417 71.884 74.4057 71.884H79.8377C80.323 71.884 80.7057 71.9353 80.9857 72.038C81.275 72.1407 81.4804 72.3273 81.6017 72.598C81.7324 72.8687 81.7977 73.256 81.7977 73.76V75.146C81.7977 75.8367 81.6484 76.3173 81.3497 76.588C81.0604 76.8587 80.5564 76.994 79.8377 76.994H75.8897C74.9284 76.994 74.2284 76.8773 73.7897 76.644C73.3604 76.4107 73.1457 75.986 73.1457 75.37ZM74.9517 74.236C74.9984 74.3573 75.087 74.432 75.2177 74.46C75.3484 74.4787 75.5117 74.488 75.7077 74.488H79.4037C79.5624 74.488 79.665 74.474 79.7117 74.446C79.7584 74.418 79.7817 74.348 79.7817 74.236C79.7817 74.124 79.7584 74.054 79.7117 74.026C79.665 73.998 79.5624 73.984 79.4037 73.984H75.4137C75.2364 73.984 75.1057 73.998 75.0217 74.026C74.9377 74.054 74.9144 74.124 74.9517 74.236ZM75.5957 83.91C74.7837 83.91 74.1444 83.7093 73.6777 83.308C73.2204 82.9067 72.9917 82.3793 72.9917 81.726C72.9917 81.39 73.0477 81.1053 73.1597 80.872C73.281 80.6293 73.3977 80.4473 73.5097 80.326C73.6217 80.2047 73.6777 80.144 73.6777 80.144L73.5657 79.92H73.0617C72.7164 79.92 72.4177 79.8127 72.1657 79.598C71.9137 79.374 71.7877 79.0567 71.7877 78.646C71.7877 78.254 71.9137 77.9507 72.1657 77.736C72.427 77.512 72.735 77.4 73.0897 77.4H82.0217C82.3764 77.4 82.6704 77.512 82.9037 77.736C83.137 77.96 83.2537 78.2633 83.2537 78.646C83.2537 79.038 83.137 79.3507 82.9037 79.584C82.6704 79.808 82.3764 79.92 82.0217 79.92H79.1377C79.0817 80.6107 78.5964 80.956 77.6817 80.956C76.711 80.956 76.193 80.6107 76.1277 79.92H74.7697C74.667 79.92 74.5737 79.948 74.4897 80.004C74.4057 80.06 74.3824 80.1487 74.4197 80.27C74.513 80.634 74.6344 80.8953 74.7837 81.054C74.9424 81.2033 75.1664 81.278 75.4557 81.278H80.6497C81.2004 81.278 81.6064 81.39 81.8677 81.614C82.129 81.8287 82.2597 82.1553 82.2597 82.594C82.2597 83.014 82.129 83.336 81.8677 83.56C81.6064 83.7933 81.2004 83.91 80.6497 83.91H75.5957ZM92.761 78.52C92.3597 78.52 92.0237 78.4033 91.753 78.17C91.4917 77.9367 91.361 77.6333 91.361 77.26V75.832H90.115V76.518C90.115 77.218 89.9703 77.7173 89.681 78.016C89.401 78.3053 88.9297 78.45 88.267 78.45H85.929C84.501 78.45 83.787 77.862 83.787 76.686C83.787 76.406 83.8197 76.1773 83.885 76C83.9503 75.8133 84.0157 75.65 84.081 75.51C84.1463 75.3607 84.179 75.2067 84.179 75.048L84.165 73.354C84.165 72.9433 84.2863 72.6447 84.529 72.458C84.781 72.262 85.0657 72.164 85.383 72.164C85.7003 72.164 85.9757 72.2433 86.209 72.402C86.4423 72.5607 86.559 72.8173 86.559 73.172V73.844H87.329C87.5717 73.844 87.693 73.7227 87.693 73.48V73.172C87.693 72.8267 87.8143 72.5747 88.057 72.416C88.309 72.248 88.5937 72.164 88.911 72.164C89.2283 72.164 89.5083 72.262 89.751 72.458C89.9937 72.6447 90.115 72.9433 90.115 73.354V74.376H90.997C91.2117 74.376 91.333 74.3153 91.361 74.194V73.186C91.361 72.8033 91.487 72.4953 91.739 72.262C91.991 72.0193 92.3317 71.898 92.761 71.898C93.181 71.898 93.5123 72.0193 93.755 72.262C93.9977 72.5047 94.119 72.822 94.119 73.214V77.26C94.119 77.6333 93.993 77.9367 93.741 78.17C93.489 78.4033 93.1623 78.52 92.761 78.52ZM84.921 75.748C84.9677 75.8507 85.047 75.9113 85.159 75.93C85.271 75.9487 85.453 75.958 85.705 75.958H87.427C87.5857 75.958 87.6883 75.9393 87.735 75.902C87.791 75.8553 87.819 75.7853 87.819 75.692V75.552C87.819 75.4587 87.791 75.3933 87.735 75.356C87.6883 75.3187 87.5857 75.3 87.427 75.3H85.089C84.8463 75.3 84.7623 75.3887 84.837 75.566L84.921 75.748ZM85.089 82.202C85.089 81.81 85.1403 81.5067 85.243 81.292C85.355 81.0773 85.411 80.97 85.411 80.97V79.766C85.411 79.3927 85.5417 79.1407 85.803 79.01C86.0737 78.87 86.3863 78.8 86.741 78.8C87.0957 78.8 87.4083 78.87 87.679 79.01C87.9497 79.1407 88.085 79.3927 88.085 79.766V79.99H91.179V79.878C91.179 79.514 91.3143 79.2527 91.585 79.094C91.8557 78.926 92.173 78.842 92.537 78.842C92.901 78.842 93.2137 78.926 93.475 79.094C93.7363 79.2527 93.867 79.514 93.867 79.878V82.188C93.867 82.7573 93.7083 83.1867 93.391 83.476C93.083 83.7747 92.635 83.924 92.047 83.924H87.651C85.943 83.924 85.089 83.35 85.089 82.202ZM86.335 81.376C86.335 81.46 86.363 81.5113 86.419 81.53C86.475 81.5487 86.573 81.558 86.713 81.558H90.955C91.095 81.558 91.1883 81.5487 91.235 81.53C91.291 81.5113 91.319 81.46 91.319 81.376C91.319 81.3013 91.291 81.2547 91.235 81.236C91.1883 81.208 91.095 81.194 90.955 81.194H86.713C86.573 81.194 86.475 81.208 86.419 81.236C86.363 81.2547 86.335 81.3013 86.335 81.376Z" fill="black"/>
</svg>
