<svg width="167" height="184" viewBox="0 0 170 184" fill="none" xmlns="http://www.w3.org/2000/svg">
<path fill-rule="evenodd" clip-rule="evenodd" d="M109.618 16.6915C109.618 23.2943 105.757 29.0016 100.154 31.7089C96.9427 33.2609 94.0793 36.095 94.0793 39.662C94.0793 42.9393 96.4223 45.7159 99.5752 46.6104C135.607 56.8325 167 99.4414 167 135.994C167 177.857 125.822 184 83.659 184C41.4961 184 0 177.857 0 135.994C0 103.421 25.1225 66.0382 56.1342 51.0509C66.918 45.8394 75.9979 35.9461 75.9979 23.9691V17.176C75.9979 17.1072 75.9987 17.0386 76.0002 16.9702C75.9987 16.8775 75.9979 16.7846 75.9979 16.6915C75.9979 7.47305 83.524 0 92.8079 0C102.092 0 109.618 7.47305 109.618 16.6915Z" fill="#96DB5C"/>
<ellipse cx="39.5106" cy="123.023" rx="12.7366" ry="6.32345" fill="#63AB26"/>
<ellipse cx="127.657" cy="123.023" rx="12.7366" ry="6.32345" fill="#63AB26"/>
<ellipse cx="83.6696" cy="125.314" rx="14.7346" ry="9.1752" fill="#FAB7B7"/>
<ellipse cx="83.6492" cy="128.229" rx="12.7366" ry="6.19946" fill="#F94747"/>
<ellipse cx="103.392" cy="104.15" rx="7.99162" ry="7.93531" fill="#100F0F"/>
<ellipse cx="63.683" cy="104.15" rx="7.99162" ry="7.93531" fill="#100F0F"/>
<path fill-rule="evenodd" clip-rule="evenodd" d="M80.5409 110.35C79.1188 118.381 72.0412 124.485 63.5242 124.485C55.0073 124.485 47.9297 118.381 46.5076 110.35H31.6955C30.052 110.35 28.7197 109.018 28.7197 107.374C28.7197 105.731 30.052 104.398 31.6955 104.398H46.5076C47.9297 96.3671 55.0073 90.2637 63.5242 90.2637C72.0412 90.2637 79.1188 96.3671 80.5409 104.398H86.5703C87.9924 96.3671 95.07 90.2637 103.587 90.2637C112.104 90.2637 119.182 96.3671 120.604 104.398H135.416C137.059 104.398 138.391 105.731 138.391 107.374C138.391 109.018 137.059 110.35 135.416 110.35H120.604C119.182 118.381 112.104 124.485 103.587 124.485C95.07 124.485 87.9924 118.381 86.5703 110.35H80.5409ZM74.7919 107.374C74.7919 113.537 69.7472 118.533 63.5243 118.533C57.3013 118.533 52.2567 113.537 52.2567 107.374C52.2567 101.211 57.3013 96.2152 63.5243 96.2152C69.7472 96.2152 74.7919 101.211 74.7919 107.374ZM103.587 118.533C109.81 118.533 114.855 113.537 114.855 107.374C114.855 101.211 109.81 96.2152 103.587 96.2152C97.3641 96.2152 92.3194 101.211 92.3194 107.374C92.3194 113.537 97.3641 118.533 103.587 118.533Z" fill="#F14245"/>
<path fill-rule="evenodd" clip-rule="evenodd" d="M143.332 55.8537C140.662 56.3305 137.874 64.9871 136.894 69.4234C136.452 68.9876 136.018 68.576 135.594 68.1938H31.2815C28.2905 70.0785 20.1897 80.3448 16.2017 86.2963H150.425C149.902 85.4758 149.15 84.3719 148.236 83.0975C156.705 84.2722 167.636 85.4277 168.812 83.0524C170.292 80.0622 166.12 67.611 162.182 64.8984C159.546 63.083 150.707 69.1088 144.849 73.1027C144.101 73.6127 143.402 74.0895 142.77 74.5127C147.895 70.6234 156.59 63.5004 156.005 61.7754C155.232 59.4978 146.732 55.2463 143.332 55.8537Z" fill="#FDFDFD"/>
<path d="M78.7317 73.186C78.7317 72.8033 78.8577 72.4953 79.1097 72.262C79.3617 72.0193 79.7024 71.898 80.1317 71.898C80.5517 71.898 80.883 72.0193 81.1257 72.262C81.3684 72.5047 81.4897 72.822 81.4897 73.214V75.398L81.6857 75.482C81.751 75.1927 81.863 74.9687 82.0217 74.81C82.1897 74.642 82.4137 74.558 82.6937 74.558C82.983 74.558 83.221 74.67 83.4077 74.894C83.6037 75.1087 83.7017 75.4073 83.7017 75.79C83.7017 76.182 83.599 76.4853 83.3937 76.7C83.1884 76.9147 82.955 77.022 82.6937 77.022C82.4697 77.022 82.283 76.966 82.1337 76.854C81.9844 76.7327 81.8677 76.588 81.7837 76.42C81.7277 76.3173 81.6624 76.28 81.5877 76.308C81.5224 76.3267 81.4897 76.4013 81.4897 76.532V78.968C81.4897 79.3227 81.3637 79.6213 81.1117 79.864C80.8597 80.1067 80.533 80.228 80.1317 80.228C79.7304 80.228 79.3944 80.1067 79.1237 79.864C78.8624 79.6213 78.7317 79.3227 78.7317 78.968V73.186ZM74.6857 79.052C74.107 79.052 73.5984 78.982 73.1597 78.842C72.721 78.702 72.3757 78.4733 72.1237 78.156C71.881 77.8387 71.7597 77.414 71.7597 76.882C71.7597 76.5367 71.8204 76.252 71.9417 76.028C72.063 75.804 72.1984 75.636 72.3477 75.524C72.5064 75.4027 72.637 75.3327 72.7397 75.314L72.5857 75.034C72.2684 75.034 72.021 74.8893 71.8437 74.6C71.6664 74.3013 71.5777 73.9653 71.5777 73.592C71.5777 73.2187 71.685 72.9013 71.8997 72.64C72.1144 72.3693 72.3897 72.234 72.7257 72.234H76.1417C76.6364 72.234 76.9817 72.374 77.1777 72.654C77.3737 72.9247 77.4717 73.242 77.4717 73.606C77.4717 73.9793 77.3737 74.3107 77.1777 74.6C76.9817 74.88 76.6364 75.02 76.1417 75.02H73.6077C73.4584 75.02 73.337 75.0527 73.2437 75.118C73.1504 75.174 73.141 75.2813 73.2157 75.44L73.2717 75.538C73.3557 75.7153 73.491 75.8227 73.6777 75.86C73.8644 75.888 74.1117 75.902 74.4197 75.902H76.5337C77.0937 75.902 77.495 76.042 77.7377 76.322C77.9804 76.602 78.1017 76.9753 78.1017 77.442C78.1017 77.89 77.9804 78.2727 77.7377 78.59C77.5044 78.898 77.117 79.052 76.5757 79.052H74.6857ZM72.7257 80.522C72.7444 80.214 72.8657 79.9527 73.0897 79.738C73.323 79.5233 73.645 79.416 74.0557 79.416C74.4664 79.416 74.779 79.5233 74.9937 79.738C75.2084 79.9527 75.3157 80.214 75.3157 80.522C75.3157 80.6713 75.353 80.7973 75.4277 80.9C75.5117 80.9933 75.7124 81.04 76.0297 81.04H80.1457C80.603 81.04 80.9577 81.1613 81.2097 81.404C81.4617 81.6373 81.5877 81.9967 81.5877 82.482C81.5877 82.9393 81.4617 83.294 81.2097 83.546C80.9577 83.798 80.603 83.924 80.1457 83.924H75.3157C74.4664 83.924 73.813 83.742 73.3557 83.378C72.8984 83.0233 72.6697 82.3933 72.6697 81.488L72.7257 80.522ZM84.039 78.758C84.0203 78.198 84.0857 77.736 84.235 77.372C84.3937 77.008 84.585 76.7327 84.809 76.546C85.033 76.35 85.2383 76.224 85.425 76.168L85.299 75.86C85.0657 75.86 84.837 75.762 84.613 75.566C84.3983 75.3607 84.2817 75.076 84.263 74.712C84.2257 74.1333 84.4357 73.662 84.893 73.298C85.3503 72.9247 86.0457 72.738 86.979 72.738C87.819 72.738 88.5283 72.9667 89.107 73.424C89.695 73.8813 90.101 74.5953 90.325 75.566H90.997C91.305 75.566 91.459 75.3933 91.459 75.048V73.2C91.459 72.8173 91.5803 72.4953 91.823 72.234C92.0657 71.9727 92.4017 71.842 92.831 71.842C93.2417 71.842 93.5637 71.9773 93.797 72.248C94.0303 72.5093 94.147 72.836 94.147 73.228V82.664C94.147 83.0187 94.0257 83.3173 93.783 83.56C93.5403 83.8027 93.223 83.924 92.831 83.924C92.4297 83.924 92.0983 83.8027 91.837 83.56C91.585 83.3173 91.459 83.0187 91.459 82.664V77.078H90.479V77.26C90.479 78.324 90.339 79.192 90.059 79.864C89.779 80.5267 89.3917 81.0167 88.897 81.334C88.4023 81.642 87.8283 81.796 87.175 81.796C86.6617 81.796 86.167 81.6887 85.691 81.474C85.215 81.2593 84.823 80.928 84.515 80.48C84.2163 80.032 84.0577 79.458 84.039 78.758ZM86.853 78.632C87.2077 78.632 87.4783 78.52 87.665 78.296C87.8517 78.0627 87.945 77.6567 87.945 77.078C87.945 76.4713 87.847 76.056 87.651 75.832C87.4643 75.608 87.1937 75.496 86.839 75.496C86.4657 75.496 86.1857 75.608 85.999 75.832C85.8217 76.056 85.733 76.4713 85.733 77.078C85.733 77.6473 85.8263 78.0487 86.013 78.282C86.1997 78.5153 86.4797 78.632 86.853 78.632Z" fill="black"/>
</svg>