<svg width="43" height="35" viewBox="0 0 43 35" fill="none" xmlns="http://www.w3.org/2000/svg">
<path d="M24.7477 5.67198C24.182 4.34773 23.1765 3.25941 21.901 2.59102C20.6255 1.92263 19.1584 1.71518 17.7476 2.00373C16.3368 2.29228 15.0689 3.05913 14.1583 4.17465C13.2477 5.29016 12.7502 6.68589 12.75 8.12588V13.1259C12.75 13.4574 12.8817 13.7753 13.1161 14.0098C13.3505 14.2442 13.6685 14.3759 14 14.3759H18.2711C18.7588 15.4897 19.5603 16.4374 20.5776 17.1033C21.5949 17.7692 22.7841 18.1245 24 18.1259H29C29.3315 18.1259 29.6495 17.9942 29.8839 17.7598C30.1183 17.5253 30.25 17.2074 30.25 16.8759V11.8759C30.2497 10.348 29.6897 8.87308 28.6759 7.72998C27.6621 6.58688 26.2646 5.85476 24.7477 5.67198ZM14 8.12588C14 7.13698 14.2932 6.17028 14.8427 5.34803C15.3921 4.52579 16.173 3.88493 17.0866 3.50649C18.0002 3.12805 19.0055 3.02903 19.9755 3.22196C20.9454 3.41488 21.8363 3.89109 22.5355 4.59035C23.2348 5.28961 23.711 6.18053 23.9039 7.15043C24.0969 8.12034 23.9978 9.12567 23.6194 10.0393C23.241 10.9529 22.6001 11.7338 21.7779 12.2832C20.9556 12.8326 19.9889 13.1259 19 13.1259H14V8.12588ZM29 16.8759H24C23.1159 16.8749 22.2477 16.64 21.4838 16.195C20.7198 15.75 20.0871 15.1108 19.65 14.3423C20.506 14.2535 21.3345 13.9886 22.0833 13.5645C22.8321 13.1403 23.4852 12.5659 24.0015 11.8773C24.5178 11.1888 24.8862 10.4009 25.0836 9.56324C25.2809 8.72555 25.303 7.85611 25.1484 7.00948C26.2447 7.2682 27.2216 7.88953 27.9206 8.77279C28.6197 9.65604 29 10.7495 29 11.8759V16.8759Z" fill="#050300"/>
<path d="M11.7056 26.7559C11.7056 28.1133 12.3404 29.5293 13.5611 30.1641L13.0337 30.8574C12.189 30.4082 11.5982 29.5732 11.2857 28.582C10.9683 29.6367 10.3823 30.5498 9.53762 31.043L8.99074 30.3594C10.1919 29.6562 10.8267 28.1621 10.8364 26.7559V26.4336H9.21535V25.6621H10.8364V24.3926H11.7056V25.6621H13.2974V26.4336H11.7056V26.7559ZM16.647 24.0801V32.8301H15.7583V28.3379H14.7134V32.4004H13.8345V24.2461H14.7134V27.5566H15.7583V24.0801H16.647ZM22.208 24.7148V25.457H18.9365V26.4238H21.9639V27.1562H18.9365V28.1523C20.6895 28.1621 21.71 28.1328 22.8916 27.9277L22.9893 28.6797C21.7197 28.8848 20.6357 28.9141 18.7217 28.9141H17.999V24.7148H22.208ZM24.7568 24.0898V29.4707H23.8291V24.0898H24.7568ZM21.8271 29.5879C23.6631 29.5879 24.8057 30.1836 24.8057 31.1992C24.8057 32.2246 23.6631 32.8203 21.8271 32.8105C19.9717 32.8203 18.8486 32.2246 18.8486 31.1992C18.8486 30.1836 19.9717 29.5879 21.8271 29.5879ZM21.8271 30.3203C20.5186 30.3203 19.7764 30.6426 19.7764 31.1992C19.7764 31.7754 20.5186 32.0977 21.8271 32.0977C23.1064 32.0977 23.8779 31.7754 23.8779 31.1992C23.8779 30.6426 23.1064 30.3203 21.8271 30.3203ZM29.9663 29.5293C31.7729 29.5293 32.8667 30.1348 32.8667 31.1699C32.8667 32.2148 31.7729 32.8203 29.9663 32.8301C28.1401 32.8203 27.0268 32.2148 27.0268 31.1699C27.0268 30.1348 28.1401 29.5293 29.9663 29.5293ZM29.9663 30.2617C28.6968 30.2617 27.9448 30.584 27.9546 31.1699C27.9448 31.7559 28.6968 32.0879 29.9663 32.0879C31.2261 32.0879 31.9585 31.7559 31.9585 31.1699C31.9585 30.584 31.2261 30.2617 29.9663 30.2617ZM32.7886 24.0801V26.2188H34.0581V27.0098H32.7886V29.3047H31.8608V24.0801H32.7886ZM27.1636 24.627V25.8867H29.4585V24.627H30.3764V28.6895H26.2554V24.627H27.1636ZM27.1636 27.9473H29.4585V26.6191H27.1636V27.9473Z" fill="#050300"/>
</svg>
