<svg width="43" height="35" viewBox="0 0 43 35" fill="none" xmlns="http://www.w3.org/2000/svg">
<path d="M30.25 16.2502H29V10.6252L29.1828 10.808C29.3003 10.9253 29.4596 10.9911 29.6256 10.9909C29.7916 10.9908 29.9507 10.9247 30.068 10.8072C30.1852 10.6898 30.251 10.5305 30.2509 10.3645C30.2508 10.1985 30.1847 10.0394 30.0672 9.92208L22.3836 2.24083C22.1492 2.00658 21.8314 1.875 21.5 1.875C21.1686 1.875 20.8508 2.00658 20.6164 2.24083L12.9328 9.92208C12.8156 10.0394 12.7499 10.1984 12.7499 10.3642C12.75 10.5299 12.8159 10.6889 12.9332 10.8061C13.0505 10.9232 13.2095 10.989 13.3753 10.9889C13.5411 10.9889 13.7 10.9229 13.8172 10.8057L14 10.6252V16.2502H12.75C12.5842 16.2502 12.4253 16.316 12.3081 16.4333C12.1908 16.5505 12.125 16.7094 12.125 16.8752C12.125 17.041 12.1908 17.1999 12.3081 17.3171C12.4253 17.4344 12.5842 17.5002 12.75 17.5002H30.25C30.4158 17.5002 30.5747 17.4344 30.6919 17.3171C30.8092 17.1999 30.875 17.041 30.875 16.8752C30.875 16.7094 30.8092 16.5505 30.6919 16.4333C30.5747 16.316 30.4158 16.2502 30.25 16.2502ZM15.25 9.3752L21.5 3.1252L27.75 9.3752V16.2502H24V11.8752C24 11.7094 23.9342 11.5505 23.8169 11.4333C23.6997 11.316 23.5408 11.2502 23.375 11.2502H19.625C19.4592 11.2502 19.3003 11.316 19.1831 11.4333C19.0658 11.5505 19 11.7094 19 11.8752V16.2502H15.25V9.3752ZM22.75 16.2502H20.25V12.5002H22.75V16.2502Z" fill="#050300"/>
<path d="M14.9846 30.1934V32.7227H8.93973V30.1934H14.9846ZM9.8577 30.9062V32.0098H14.0862V30.9062H9.8577ZM15.512 24.7734V25.4863H8.39285V24.7734H11.5081V23.9629H12.4358V24.7734H15.512ZM11.9671 25.7988C13.8128 25.7988 14.8382 26.2188 14.8382 27.0391C14.8382 27.7861 13.9837 28.2012 12.4358 28.2695V28.8652H15.9612V29.5977H7.9827V28.8652H11.5081V28.2695C9.96023 28.2012 9.08621 27.7861 9.09598 27.0391C9.08621 26.2188 10.1311 25.7988 11.9671 25.7988ZM11.9671 26.4336C10.7464 26.4434 10.0823 26.6387 10.0823 27.0391C10.0823 27.4297 10.7464 27.6445 11.9671 27.6445C13.1975 27.6445 13.8518 27.4297 13.8518 27.0391C13.8518 26.6387 13.1975 26.4434 11.9671 26.4336ZM25.4621 24.0801V27.7422H26.7805V28.5234H25.4621V32.8301H24.5344V24.0801H25.4621ZM18.4993 30.4473C19.1877 30.4473 19.9885 30.4473 20.8235 30.418V29.5293C19.8371 29.3926 19.1926 28.7969 19.2024 27.9473C19.1926 26.9609 20.0422 26.3066 21.2922 26.3066C22.5325 26.3066 23.3918 26.9609 23.4016 27.9473C23.3918 28.7969 22.7375 29.3975 21.7512 29.5391V30.3789C22.5276 30.3496 23.3088 30.2861 24.0364 30.1836L24.095 30.8672C22.2004 31.209 20.1496 31.2188 18.6457 31.2188L18.4993 30.4473ZM23.9094 25.1152V25.8574H18.6653V25.1152H20.8235V24.0996H21.7512V25.1152H23.9094ZM21.2922 27.0293C20.5598 27.0293 20.0715 27.3906 20.0715 27.9473C20.0715 28.5039 20.5598 28.8457 21.2922 28.8457C22.0246 28.8457 22.5129 28.5039 22.5129 27.9473C22.5129 27.3906 22.0246 27.0293 21.2922 27.0293ZM31.4821 24.8223V25.5645H33.3864V24.0898H34.3142V30.4668H33.3864V28.2012H31.4821V28.9629H27.4196V24.8223H31.4821ZM28.3376 25.5742V28.2305H30.5739V25.5742H28.3376ZM34.5095 31.8926V32.6445H28.6013V29.8809H29.5388V31.8926H34.5095ZM31.4821 27.4395H33.3864V26.3262H31.4821V27.4395Z" fill="#050300"/>
</svg>
