<svg width="102" height="17" viewBox="0 0 102 17" fill="none" xmlns="http://www.w3.org/2000/svg">
<path d="M7.81 16.566C6.24067 16.566 4.91333 16.2213 3.828 15.532C2.74267 14.8427 1.92133 13.8893 1.364 12.672C0.806667 11.4547 0.528 10.054 0.528 8.47C0.528 6.90067 0.806667 5.50733 1.364 4.29C1.92133 3.058 2.74267 2.09733 3.828 1.408C4.91333 0.703999 6.24067 0.351999 7.81 0.351999C9.37933 0.351999 10.6993 0.703999 11.77 1.408C12.8553 2.09733 13.6767 3.058 14.234 4.29C14.7913 5.50733 15.07 6.90067 15.07 8.47C15.07 10.054 14.7913 11.4547 14.234 12.672C13.6767 13.8893 12.8553 14.8427 11.77 15.532C10.6993 16.2213 9.37933 16.566 7.81 16.566ZM3.3 8.118C3.3 8.57267 3.41 9.00533 3.63 9.416C3.85 9.812 4.28267 10.1347 4.928 10.384C5.57333 10.6187 6.534 10.736 7.81 10.736C9.086 10.736 10.0393 10.6187 10.67 10.384C11.3153 10.1347 11.748 9.812 11.968 9.416C12.188 9.00533 12.298 8.57267 12.298 8.118C12.298 7.64867 12.188 7.23067 11.968 6.864C11.748 6.48267 11.3153 6.182 10.67 5.962C10.0393 5.72733 9.086 5.61 7.81 5.61C6.534 5.61 5.57333 5.72733 4.928 5.962C4.28267 6.182 3.85 6.48267 3.63 6.864C3.41 7.23067 3.3 7.64867 3.3 8.118ZM18.0412 16.5C17.3079 16.5 16.7505 16.2727 16.3692 15.818C15.9879 15.3633 15.7972 14.7547 15.7972 13.992V3.674C15.7972 2.91133 15.9365 2.29533 16.2152 1.826C16.5085 1.342 16.8825 0.989999 17.3372 0.769999C17.8065 0.549999 18.3125 0.44 18.8552 0.44C19.6619 0.44 20.3439 0.652666 20.9012 1.078C21.4585 1.50333 21.8912 2.25133 22.1992 3.322L24.5752 11.44H24.9272V2.992C24.9272 2.21467 25.1252 1.606 25.5212 1.166C25.9172 0.711332 26.4819 0.483999 27.2152 0.483999C27.9779 0.483999 28.5425 0.711332 28.9092 1.166C29.2905 1.606 29.4812 2.21467 29.4812 2.992V12.936C29.4812 14.168 29.2099 15.0773 28.6672 15.664C28.1245 16.2507 27.3619 16.544 26.3792 16.544C25.3819 16.544 24.6045 16.28 24.0472 15.752C23.4899 15.224 23.0645 14.4467 22.7712 13.42L21.2092 8.074C21.1799 7.92733 21.1212 7.79533 21.0332 7.678C20.9599 7.546 20.8572 7.48 20.7252 7.48C20.5639 7.48 20.4539 7.546 20.3952 7.678C20.3365 7.79533 20.3072 7.92733 20.3072 8.074V13.992C20.3072 14.7547 20.1165 15.3633 19.7352 15.818C19.3539 16.2727 18.7892 16.5 18.0412 16.5ZM35.8072 16.456C35.0886 16.456 34.3992 16.39 33.7392 16.258C33.0939 16.126 32.5219 15.8767 32.0232 15.51C31.5392 15.1287 31.1506 14.586 30.8572 13.882C30.5786 13.1633 30.4392 12.2247 30.4392 11.066C30.4392 10.0247 30.5786 9.13 30.8572 8.382C31.1359 7.634 31.4659 7.04 31.8472 6.6C32.2432 6.16 32.6026 5.88867 32.9252 5.786L32.8152 5.368H32.4412C31.7666 5.368 31.2312 5.15533 30.8352 4.73C30.4539 4.29 30.2559 3.696 30.2412 2.948C30.2266 2.21467 30.4172 1.628 30.8132 1.188C31.2239 0.748 31.7666 0.528 32.4412 0.528H40.3392C41.9086 0.528 42.6932 1.26133 42.6932 2.728C42.6932 3.388 42.5026 3.916 42.1212 4.312C41.7399 4.708 41.1459 4.906 40.3392 4.906H35.7852C35.2426 4.906 34.9712 5.22133 34.9712 5.852V7.502C35.7046 7.34067 36.4672 7.15 37.2592 6.93C38.0659 6.71 38.8286 6.6 39.5472 6.6C40.2366 6.6 40.7499 6.754 41.0872 7.062C41.4392 7.35533 41.6152 7.75867 41.6152 8.272C41.6152 8.8 41.4392 9.218 41.0872 9.526C40.7499 9.81933 40.2366 9.97333 39.5472 9.988C38.8286 10.0027 38.0659 9.9 37.2592 9.68C36.4526 9.46 35.6826 9.26933 34.9492 9.108V11.99C34.9492 12.2687 35.0226 12.4667 35.1692 12.584C35.3306 12.6867 35.5799 12.6427 35.9172 12.452C36.6506 12.0267 37.3692 11.6893 38.0732 11.44C38.7772 11.176 39.4666 11.044 40.1412 11.044C41.0946 11.044 41.8132 11.2933 42.2972 11.792C42.7959 12.2907 43.0452 12.9433 43.0452 13.75C43.0452 14.6153 42.7812 15.2827 42.2532 15.752C41.7399 16.2213 40.9039 16.456 39.7452 16.456H35.8072ZM51.58 11.418V14.168C51.58 14.9307 51.3747 15.51 50.964 15.906C50.568 16.302 50.04 16.5 49.38 16.5H49.358C48.6394 16.5 48.0674 16.302 47.642 15.906C47.2314 15.51 47.026 14.9307 47.026 14.168V11.066C47.026 9.51133 47.2607 8.33067 47.73 7.524C48.1994 6.71733 48.7934 6.138 49.512 5.786L49.402 5.368H49.028C48.3534 5.368 47.818 5.15533 47.422 4.73C47.0407 4.29 46.8427 3.696 46.828 2.948C46.8134 2.21467 47.004 1.62067 47.4 1.166C47.8107 0.711332 48.3534 0.483999 49.028 0.483999H54.814C56.2954 0.483999 57.498 0.931332 58.422 1.826C59.3607 2.706 59.83 4.09933 59.83 6.006C59.83 7.38467 59.588 8.47 59.104 9.262C58.62 10.054 57.982 10.6113 57.19 10.934C56.398 11.2567 55.54 11.418 54.616 11.418H51.58ZM51.294 7.172C51.294 7.49467 51.3527 7.70733 51.47 7.81C51.602 7.91267 51.8294 7.964 52.152 7.964H54.198C54.814 7.964 55.2614 7.82467 55.54 7.546C55.8187 7.25267 55.958 6.842 55.958 6.314C55.958 5.786 55.8187 5.38267 55.54 5.104C55.2614 4.82533 54.814 4.686 54.198 4.686H52.152C51.8294 4.686 51.602 4.73 51.47 4.818C51.3527 4.906 51.294 5.11867 51.294 5.456V7.172ZM65.79 16.456C65.0713 16.456 64.382 16.39 63.722 16.258C63.0766 16.126 62.5046 15.8767 62.006 15.51C61.522 15.1287 61.1333 14.586 60.84 13.882C60.5613 13.1633 60.422 12.2247 60.422 11.066C60.422 10.0247 60.5613 9.13 60.84 8.382C61.1186 7.634 61.4486 7.04 61.83 6.6C62.226 6.16 62.5853 5.88867 62.908 5.786L62.798 5.368H62.424C61.7493 5.368 61.214 5.15533 60.818 4.73C60.4366 4.29 60.2386 3.696 60.224 2.948C60.2093 2.21467 60.4 1.628 60.796 1.188C61.2066 0.748 61.7493 0.528 62.424 0.528H70.322C71.8913 0.528 72.676 1.26133 72.676 2.728C72.676 3.388 72.4853 3.916 72.104 4.312C71.7226 4.708 71.1286 4.906 70.322 4.906H65.768C65.2253 4.906 64.954 5.22133 64.954 5.852V7.502C65.6873 7.34067 66.45 7.15 67.242 6.93C68.0486 6.71 68.8113 6.6 69.53 6.6C70.2193 6.6 70.7326 6.754 71.07 7.062C71.422 7.35533 71.598 7.75867 71.598 8.272C71.598 8.8 71.422 9.218 71.07 9.526C70.7326 9.81933 70.2193 9.97333 69.53 9.988C68.8113 10.0027 68.0486 9.9 67.242 9.68C66.4353 9.46 65.6653 9.26933 64.932 9.108V11.99C64.932 12.2687 65.0053 12.4667 65.152 12.584C65.3133 12.6867 65.5626 12.6427 65.9 12.452C66.6333 12.0267 67.352 11.6893 68.056 11.44C68.76 11.176 69.4493 11.044 70.124 11.044C71.0773 11.044 71.796 11.2933 72.28 11.792C72.7786 12.2907 73.028 12.9433 73.028 13.75C73.028 14.6153 72.764 15.2827 72.236 15.752C71.7226 16.2213 70.8866 16.456 69.728 16.456H65.79ZM75.2776 16.5C74.295 16.3533 73.657 15.906 73.3636 15.158C73.0703 14.3953 73.129 13.4347 73.5396 12.276L76.4436 4.026C76.7076 3.26333 77.0083 2.61067 77.3456 2.068C77.6976 1.52533 78.1303 1.10733 78.6436 0.813999C79.1716 0.520666 79.8243 0.373999 80.6016 0.373999C81.775 0.373999 82.655 0.696666 83.2416 1.342C83.843 1.98733 84.3416 2.882 84.7376 4.026L87.6196 12.276C88.0303 13.4347 88.1036 14.3953 87.8396 15.158C87.5903 15.906 86.967 16.3533 85.9696 16.5C85.163 16.6027 84.459 16.5073 83.8576 16.214C83.271 15.9207 82.919 15.444 82.8016 14.784C82.7136 14.344 82.699 13.9773 82.7576 13.684C82.831 13.3907 82.897 13.156 82.9556 12.98C82.9996 12.8333 82.9996 12.694 82.9556 12.562C82.9263 12.4153 82.8163 12.342 82.6256 12.342H78.5336C78.343 12.342 78.2256 12.4153 78.1816 12.562C78.1523 12.694 78.167 12.8333 78.2256 12.98C78.2843 13.156 78.343 13.3907 78.4016 13.684C78.4603 13.9773 78.453 14.344 78.3796 14.784C78.2623 15.444 77.9176 15.9207 77.3456 16.214C76.7736 16.5073 76.0843 16.6027 75.2776 16.5ZM82.2076 9.262L81.0636 5.676C81.0343 5.52933 80.983 5.41933 80.9096 5.346C80.851 5.258 80.7483 5.214 80.6016 5.214C80.455 5.214 80.345 5.258 80.2716 5.346C80.213 5.41933 80.1616 5.52933 80.1176 5.676L78.9956 9.262H82.2076ZM93.5803 6.578L96.8803 1.914C97.4669 1.078 98.1049 0.608666 98.7943 0.505999C99.4836 0.388666 100.107 0.549999 100.664 0.989999C101.031 1.26867 101.273 1.64267 101.39 2.112C101.508 2.58133 101.471 3.08 101.28 3.608C101.09 4.136 100.708 4.63467 100.136 5.104L96.4623 8.074V8.536C96.9316 8.536 97.4816 8.59467 98.1123 8.712C98.7429 8.82933 99.3149 9.09333 99.8283 9.504C100.239 9.812 100.591 10.164 100.884 10.56C101.192 10.956 101.434 11.4473 101.61 12.034C101.786 12.606 101.874 13.332 101.874 14.212C101.874 14.9307 101.676 15.51 101.28 15.95C100.899 16.3753 100.327 16.588 99.5643 16.588C98.8016 16.588 98.2149 16.3753 97.8043 15.95C97.4083 15.51 97.2103 14.9307 97.2103 14.212C97.2103 13.4053 97.0783 12.7673 96.8143 12.298C96.5649 11.814 96.2276 11.462 95.8023 11.242C95.3769 11.022 94.9149 10.912 94.4163 10.912H93.3383V14.366C93.3383 14.9967 93.1183 15.5173 92.6783 15.928C92.2529 16.3387 91.7029 16.544 91.0283 16.544C90.3536 16.544 89.7963 16.3387 89.3563 15.928C88.9309 15.5173 88.7183 14.9967 88.7183 14.366V2.728C88.7183 2.08267 88.9309 1.54 89.3563 1.1C89.7816 0.659999 90.3389 0.44 91.0283 0.44C91.7616 0.44 92.3263 0.659999 92.7223 1.1C93.1329 1.52533 93.3383 2.05333 93.3383 2.684V6.534L93.5803 6.578Z" fill="#7BD232"/>
</svg>
