<svg width="24" height="26" viewBox="0 0 24 26" fill="none" xmlns="http://www.w3.org/2000/svg">
<path fill-rule="evenodd" clip-rule="evenodd" d="M15.7535 2.35859C15.7535 3.29676 15.1924 4.10699 14.38 4.48692C13.924 4.7002 13.5204 5.1002 13.5204 5.60363C13.5204 6.06685 13.8522 6.45912 14.2986 6.58301C19.4816 8.02166 24 14.0476 24 19.2165C24 25.1319 18.0822 26 12.0229 26C5.9635 26 0 25.1319 0 19.2165C0 14.8895 3.19082 9.96192 7.27596 7.62756C9.21122 6.52169 10.9219 4.67776 10.9219 2.44882C10.9219 2.43587 10.922 2.42297 10.9224 2.41012C10.922 2.39299 10.9219 2.37581 10.9219 2.35859C10.9219 1.05597 12.0035 0 13.3377 0C14.6719 0 15.7535 1.05597 15.7535 2.35859Z" fill="#96DB5C"/>
<ellipse cx="5.67807" cy="17.3838" rx="1.83042" ry="0.893531" fill="#63AB26"/>
<ellipse cx="18.346" cy="17.3838" rx="1.83042" ry="0.893531" fill="#63AB26"/>
<ellipse cx="12.0248" cy="17.7067" rx="2.11754" ry="1.2965" fill="#FAB7B7"/>
<ellipse cx="12.0218" cy="18.1202" rx="1.83042" ry="0.876011" fill="#F94747"/>
<ellipse cx="14.8585" cy="14.717" rx="1.1485" ry="1.12129" fill="#100F0F"/>
<ellipse cx="9.1524" cy="14.717" rx="1.1485" ry="1.12129" fill="#100F0F"/>
<path fill-rule="evenodd" clip-rule="evenodd" d="M11.5743 15.5922C11.3699 16.727 10.3528 17.5895 9.1288 17.5895C7.9048 17.5895 6.88766 16.727 6.68329 15.5922H4.54744C4.31521 15.5922 4.12695 15.4039 4.12695 15.1717C4.12695 14.9395 4.31521 14.7512 4.54744 14.7512H6.68329C6.88766 13.6163 7.9048 12.7539 9.1288 12.7539C10.3528 12.7539 11.3699 13.6163 11.5743 14.7512H12.4408C12.6452 13.6163 13.6623 12.7539 14.8863 12.7539C16.1103 12.7539 17.1275 13.6163 17.3318 14.7512H19.4677C19.6999 14.7512 19.8882 14.9395 19.8882 15.1717C19.8882 15.4039 19.6999 15.5922 19.4677 15.5922H17.3318C17.1275 16.727 16.1103 17.5895 14.8863 17.5895C13.6623 17.5895 12.6452 16.727 12.4408 15.5922H11.5743ZM10.7481 15.1717C10.7481 16.0425 10.0231 16.7485 9.12881 16.7485C8.23449 16.7485 7.50951 16.0425 7.50951 15.1717C7.50951 14.3008 8.23449 13.5949 9.12881 13.5949C10.0231 13.5949 10.7481 14.3008 10.7481 15.1717ZM14.8863 16.7485C15.7806 16.7485 16.5056 16.0425 16.5056 15.1717C16.5056 14.3008 15.7806 13.5949 14.8863 13.5949C13.992 13.5949 13.267 14.3008 13.267 15.1717C13.267 16.0425 13.992 16.7485 14.8863 16.7485Z" fill="#F14245"/>
</svg>
