<svg width="43" height="35" viewBox="0 0 43 35" fill="none" xmlns="http://www.w3.org/2000/svg">
<path d="M29.5407 16.5627C28.3508 14.5056 26.5172 13.0306 24.3774 12.3314C25.4358 11.7013 26.2582 10.7412 26.7182 9.59845C27.1781 8.45573 27.2503 7.19361 26.9235 6.00592C26.5968 4.81823 25.8892 3.77064 24.9094 3.02402C23.9296 2.2774 22.7318 1.87305 21.5 1.87305C20.2682 1.87305 19.0704 2.2774 18.0907 3.02402C17.1109 3.77064 16.4033 4.81823 16.0765 6.00592C15.7498 7.19361 15.8219 8.45573 16.2819 9.59845C16.7419 10.7412 17.5642 11.7013 18.6227 12.3314C16.4828 13.0299 14.6492 14.5049 13.4594 16.5627C13.4158 16.6338 13.3868 16.713 13.3743 16.7955C13.3617 16.878 13.3659 16.9622 13.3864 17.0431C13.4069 17.124 13.4434 17.2 13.4938 17.2665C13.5441 17.3331 13.6073 17.3889 13.6796 17.4306C13.7519 17.4724 13.8318 17.4992 13.9146 17.5096C13.9974 17.5199 14.0814 17.5136 14.1618 17.491C14.2421 17.4683 14.3171 17.4298 14.3823 17.3777C14.4475 17.3256 14.5016 17.261 14.5414 17.1877C16.0133 14.6439 18.6149 13.1252 21.5 13.1252C24.3852 13.1252 26.9867 14.6439 28.4586 17.1877C28.4984 17.261 28.5526 17.3256 28.6178 17.3777C28.683 17.4298 28.758 17.4683 28.8383 17.491C28.9186 17.5136 29.0027 17.5199 29.0855 17.5096C29.1683 17.4992 29.2482 17.4724 29.3205 17.4306C29.3927 17.3889 29.4559 17.3331 29.5063 17.2665C29.5566 17.2 29.5932 17.124 29.6137 17.0431C29.6342 16.9622 29.6383 16.878 29.6258 16.7955C29.6132 16.713 29.5843 16.6338 29.5407 16.5627ZM17.125 7.50017C17.125 6.63488 17.3816 5.78902 17.8623 5.06955C18.3431 4.35009 19.0264 3.78933 19.8258 3.4582C20.6252 3.12707 21.5049 3.04043 22.3535 3.20924C23.2022 3.37805 23.9818 3.79473 24.5936 4.40658C25.2055 5.01843 25.6222 5.79799 25.791 6.64665C25.9598 7.49532 25.8731 8.37499 25.542 9.17441C25.2109 9.97384 24.6501 10.6571 23.9306 11.1379C23.2112 11.6186 22.3653 11.8752 21.5 11.8752C20.3401 11.8739 19.228 11.4126 18.4078 10.5924C17.5876 9.77219 17.1263 8.66011 17.125 7.50017Z" fill="#020401"/>
<path d="M15.4729 24.0801V32.8301H14.5843V28.3477H13.4612V32.3809H12.5921V24.2559H13.4612V27.5859H14.5843V24.0801H15.4729ZM9.32059 25.1152V29.7832C10.1311 29.7783 11.0149 29.7148 12.0061 29.5195L12.1038 30.3301C10.9026 30.5449 9.89676 30.6035 8.95926 30.6035H8.39285V25.1152H9.32059ZM25.9016 24.0801V29.2852H24.9739V27.0684H23.343V26.3066H24.9739V24.0801H25.9016ZM22.9719 29.5293C24.8079 29.5293 25.9309 30.1348 25.9309 31.1797C25.9309 32.2246 24.8079 32.8203 22.9719 32.8301C21.136 32.8203 20.0032 32.2246 20.0129 31.1797C20.0032 30.1348 21.136 29.5293 22.9719 29.5293ZM22.9719 30.252C21.6926 30.252 20.9309 30.584 20.9309 31.1797C20.9309 31.7656 21.6926 32.1074 22.9719 32.0977C24.2512 32.1074 25.0129 31.7656 25.0129 31.1797C25.0129 30.584 24.2512 30.252 22.9719 30.252ZM21.7414 25.623C21.7414 26.7363 22.5325 27.8105 23.8508 28.2598L23.3723 28.9922C22.3909 28.6504 21.6682 27.9521 21.2922 27.0879C20.9065 28.0693 20.1399 28.8555 19.095 29.2363L18.6067 28.4941C19.9641 28.0254 20.7942 26.8438 20.7942 25.6328V25.4375H18.8996V24.6855H23.6164V25.4375H21.7414V25.623ZM35.0271 30.9746V31.7461H27.0193V30.9746H30.5446V29.1777H27.9372V24.6758H28.865V26.1797H33.1618V24.6758H34.0798V29.1777H31.4626V30.9746H35.0271ZM28.865 28.4258H33.1618V26.9316H28.865V28.4258Z" fill="#020401"/>
</svg>
