<svg width="23" height="23" viewBox="0 0 23 23" fill="none" xmlns="http://www.w3.org/2000/svg">
<g id="Siren">
<path id="Vector" d="M10.8125 1.875V1.1875C10.8125 1.00516 10.8849 0.830295 11.0139 0.701364C11.1428 0.572433 11.3177 0.5 11.5 0.5C11.6823 0.5 11.8572 0.572433 11.9861 0.701364C12.1151 0.830295 12.1875 1.00516 12.1875 1.1875V1.875C12.1875 2.05734 12.1151 2.2322 11.9861 2.36114C11.8572 2.49007 11.6823 2.5625 11.5 2.5625C11.3177 2.5625 11.1428 2.49007 11.0139 2.36114C10.8849 2.2322 10.8125 2.05734 10.8125 1.875ZM17.6875 4.625C17.7778 4.62507 17.8673 4.60735 17.9507 4.57284C18.0342 4.53834 18.11 4.48773 18.1739 4.42391L18.8614 3.73641C18.9904 3.6074 19.0629 3.43244 19.0629 3.25C19.0629 3.06756 18.9904 2.8926 18.8614 2.76359C18.7324 2.63459 18.5574 2.56212 18.375 2.56212C18.1926 2.56212 18.0176 2.63459 17.8886 2.76359L17.2011 3.45109C17.1048 3.54724 17.0393 3.66979 17.0127 3.80323C16.9861 3.93666 16.9997 4.07498 17.0518 4.20067C17.1039 4.32636 17.1921 4.43377 17.3053 4.50931C17.4184 4.58484 17.5514 4.62511 17.6875 4.625ZM4.82609 4.42391C4.88997 4.48778 4.9658 4.53845 5.04926 4.57302C5.13272 4.60759 5.22217 4.62538 5.3125 4.62538C5.40283 4.62538 5.49228 4.60759 5.57574 4.57302C5.6592 4.53845 5.73503 4.48778 5.79891 4.42391C5.86278 4.36003 5.91345 4.2842 5.94802 4.20074C5.98259 4.11728 6.00038 4.02783 6.00038 3.9375C6.00038 3.84717 5.98259 3.75772 5.94802 3.67426C5.91345 3.5908 5.86278 3.51497 5.79891 3.45109L5.11141 2.76359C4.9824 2.63459 4.80744 2.56212 4.625 2.56212C4.44256 2.56212 4.2676 2.63459 4.13859 2.76359C4.00959 2.8926 3.93712 3.06756 3.93712 3.25C3.93712 3.43244 4.00959 3.6074 4.13859 3.73641L4.82609 4.42391ZM12.3027 6.69695C12.2132 6.68114 12.1215 6.6832 12.0329 6.70302C11.9443 6.72283 11.8605 6.76002 11.7863 6.81242C11.7121 6.86482 11.649 6.93139 11.6007 7.0083C11.5524 7.08521 11.5198 7.17093 11.5049 7.26051C11.4899 7.35008 11.4928 7.44174 11.5134 7.53018C11.5341 7.61863 11.572 7.7021 11.6251 7.77579C11.6782 7.84949 11.7453 7.91193 11.8227 7.95952C11.9001 8.0071 11.9861 8.03889 12.0758 8.05305C13.706 8.32719 14.9375 9.80875 14.9375 11.5C14.9375 11.6823 15.0099 11.8572 15.1389 11.9861C15.2678 12.1151 15.4427 12.1875 15.625 12.1875C15.8073 12.1875 15.9822 12.1151 16.1111 11.9861C16.2401 11.8572 16.3125 11.6823 16.3125 11.5C16.3125 9.14531 14.5877 7.08023 12.3009 6.69695H12.3027ZM20.4375 15.625V17.6875C20.4375 18.0522 20.2926 18.4019 20.0348 18.6598C19.7769 18.9176 19.4272 19.0625 19.0625 19.0625H3.9375C3.57283 19.0625 3.22309 18.9176 2.96523 18.6598C2.70737 18.4019 2.5625 18.0522 2.5625 17.6875V15.625C2.5625 15.2603 2.70737 14.9106 2.96523 14.6527C3.22309 14.3949 3.57283 14.25 3.9375 14.25V11.5C3.93747 10.502 4.13497 9.51389 4.51862 8.5926C4.90227 7.6713 5.46447 6.83505 6.17282 6.13204C6.88118 5.42904 7.72167 4.8732 8.64585 4.49655C9.57003 4.1199 10.5596 3.9299 11.5576 3.9375C15.6955 3.96844 19.0625 7.39992 19.0625 11.5859V14.25C19.4272 14.25 19.7769 14.3949 20.0348 14.6527C20.2926 14.9106 20.4375 15.2603 20.4375 15.625ZM5.3125 14.25H17.6875V11.5859C17.6875 8.14844 14.9332 5.33742 11.5473 5.3125H11.5C9.85897 5.3125 8.28516 5.9644 7.12478 7.12478C5.9644 8.28516 5.3125 9.85897 5.3125 11.5V14.25ZM19.0625 17.6875V15.625H3.9375V17.6875H19.0625Z" fill="#F50000"/>
</g>
</svg>
