<svg width="24" height="26" viewBox="0 0 24 26" fill="none" xmlns="http://www.w3.org/2000/svg">
<rect y="1" width="24" height="24" rx="12" fill="#FFEDCC"/>
<path d="M19.281 11.9505C19.2114 12.026 19.1287 12.086 19.0376 12.1268C18.9466 12.1677 18.849 12.1888 18.7504 12.1888C18.6519 12.1888 18.5543 12.1677 18.4632 12.1268C18.3722 12.086 18.2894 12.026 18.2198 11.9505L12.7504 6.02431V21.9381C12.7504 22.1536 12.6714 22.3603 12.5307 22.5127C12.3901 22.665 12.1993 22.7506 12.0004 22.7506C11.8015 22.7506 11.6107 22.665 11.4701 22.5127C11.3294 22.3603 11.2504 22.1536 11.2504 21.9381V6.02431L5.78104 11.9505C5.64031 12.1029 5.44944 12.1886 5.25042 12.1886C5.05139 12.1886 4.86052 12.1029 4.71979 11.9505C4.57906 11.798 4.5 11.5912 4.5 11.3756C4.5 11.16 4.57906 10.9533 4.71979 10.8008L11.4698 3.4883C11.5394 3.41275 11.6222 3.35282 11.7132 3.31193C11.8043 3.27105 11.9019 3.25 12.0004 3.25C12.099 3.25 12.1966 3.27105 12.2876 3.31193C12.3787 3.35282 12.4614 3.41275 12.531 3.4883L19.281 10.8008C19.3508 10.8763 19.4061 10.9659 19.4438 11.0645C19.4816 11.1631 19.501 11.2689 19.501 11.3756C19.501 11.4824 19.4816 11.5881 19.4438 11.6868C19.4061 11.7854 19.3508 11.875 19.281 11.9505Z" fill="#FFB733"/>
</svg>