<svg width="22" height="22" viewBox="0 0 22 22" fill="none" xmlns="http://www.w3.org/2000/svg">
<path d="M20.1342 9.8709L16.2671 13.2078L17.4453 18.1982C17.5103 18.4691 17.4935 18.7532 17.3972 19.0146C17.3008 19.276 17.1291 19.503 16.9038 19.6669C16.6785 19.8307 16.4097 19.9242 16.1313 19.9353C15.8529 19.9465 15.5775 19.8749 15.3398 19.7296L10.9999 17.0587L6.65752 19.7296C6.41985 19.8741 6.14474 19.945 5.86685 19.9334C5.58895 19.9218 5.3207 19.8283 5.09587 19.6645C4.87104 19.5008 4.69968 19.2742 4.60336 19.0133C4.50705 18.7524 4.4901 18.4688 4.55463 18.1982L5.73713 13.2078L1.86995 9.8709C1.65966 9.68915 1.50757 9.44947 1.43268 9.1818C1.35779 8.91413 1.36342 8.63033 1.44887 8.36585C1.53431 8.10136 1.69578 7.8679 1.91311 7.69463C2.13044 7.52137 2.39401 7.41597 2.67088 7.3916L7.7412 6.98254L9.69713 2.2491C9.803 1.99113 9.98319 1.77047 10.2148 1.61517C10.4464 1.45987 10.7189 1.37695 10.9978 1.37695C11.2766 1.37695 11.5492 1.45987 11.7808 1.61517C12.0124 1.77047 12.1926 1.99113 12.2985 2.2491L14.2535 6.98254L19.3239 7.3916C19.6013 7.41506 19.8656 7.51987 20.0837 7.6929C20.3019 7.86593 20.4641 8.09948 20.55 8.36429C20.636 8.6291 20.6419 8.91339 20.5671 9.18155C20.4922 9.44971 20.3398 9.6898 20.1291 9.87176L20.1342 9.8709Z" fill="#FFB733"/>
</svg>
