<svg width="28" height="28" viewBox="0 0 28 28" fill="none" xmlns="http://www.w3.org/2000/svg">
<path d="M25.2561 23.1866C23.5903 20.3067 21.0233 18.2417 18.0275 17.2628C19.5094 16.3807 20.6607 15.0365 21.3046 13.4367C21.9486 11.8368 22.0496 10.0699 21.5921 8.40712C21.1347 6.74435 20.144 5.27772 18.7724 4.23246C17.4007 3.18719 15.7238 2.62109 13.9993 2.62109C12.2747 2.62109 10.5978 3.18719 9.22616 4.23246C7.85448 5.27772 6.86385 6.74435 6.40638 8.40712C5.94891 10.0699 6.04991 11.8368 6.69387 13.4367C7.33782 15.0365 8.48913 16.3807 9.97098 17.2628C6.9752 18.2406 4.40816 20.3056 2.74238 23.1866C2.6813 23.2862 2.64078 23.397 2.62322 23.5125C2.60566 23.628 2.61141 23.7459 2.64014 23.8592C2.66887 23.9724 2.72 24.0788 2.7905 24.172C2.861 24.2651 2.94945 24.3433 3.05063 24.4017C3.15181 24.4601 3.26367 24.4977 3.37961 24.5122C3.49555 24.5268 3.61323 24.5179 3.72569 24.4862C3.83815 24.4545 3.94312 24.4006 4.03442 24.3277C4.12571 24.2547 4.20147 24.1643 4.25723 24.0616C6.31785 20.5003 9.96004 18.3741 13.9993 18.3741C18.0385 18.3741 21.6807 20.5003 23.7413 24.0616C23.797 24.1643 23.8728 24.2547 23.9641 24.3277C24.0554 24.4006 24.1604 24.4545 24.2728 24.4862C24.3853 24.5179 24.503 24.5268 24.6189 24.5122C24.7348 24.4977 24.8467 24.4601 24.9479 24.4017C25.0491 24.3433 25.1375 24.2651 25.208 24.172C25.2785 24.0788 25.3296 23.9724 25.3584 23.8592C25.3871 23.7459 25.3929 23.628 25.3753 23.5125C25.3577 23.397 25.3172 23.2862 25.2561 23.1866ZM7.87426 10.4991C7.87426 9.28766 8.23348 8.10345 8.90651 7.0962C9.57953 6.08895 10.5361 5.30389 11.6553 4.84031C12.7745 4.37672 14.0061 4.25542 15.1942 4.49176C16.3823 4.72809 17.4737 5.31144 18.3303 6.16804C19.1869 7.02464 19.7702 8.11601 20.0066 9.30414C20.2429 10.4923 20.1216 11.7238 19.658 12.843C19.1944 13.9622 18.4094 14.9188 17.4021 15.5918C16.3949 16.2648 15.2107 16.6241 13.9993 16.6241C12.3753 16.6223 10.8184 15.9765 9.67015 14.8282C8.52186 13.6799 7.876 12.123 7.87426 10.4991Z" fill="#343330"/>
</svg>
